<svg width="167" height="190" viewBox="0 0 167 190" fill="none" xmlns="http://www.w3.org/2000/svg">
<g clip-path="url(#clip0_132_6687)">
<path d="M83.0271 188.583H20.1563C9.43048 188.583 0.727539 179.88 0.727539 169.154C0.727539 158.428 9.43048 149.725 20.1563 149.725H83.0271V188.583Z" fill="#454DFF"/>
<path d="M83.7549 189.311H20.1565C9.03767 189.311 0 180.273 0 169.154C0 158.036 9.03767 148.998 20.1565 148.998H83.7549V189.311ZM20.1565 150.453C9.85266 150.453 1.45534 158.836 1.45534 169.154C1.45534 179.473 9.83811 187.855 20.1565 187.855H82.2996V150.453H20.1565Z" fill="#2E3433"/>
<path d="M152.724 184.697H62.114C53.3819 184.697 46.2944 177.61 46.2944 168.878C46.2944 160.146 53.3819 153.058 62.114 153.058H152.724V184.697Z" fill="white"/>
<path d="M153.451 185.425H62.1141C52.9891 185.425 45.5669 178.003 45.5669 168.878C45.5669 159.753 52.9891 152.331 62.1141 152.331H153.451V185.425ZM62.1141 153.786C53.7896 153.786 47.0222 160.553 47.0222 168.878C47.0222 177.202 53.7896 183.97 62.1141 183.97H151.996V153.786H62.1141Z" fill="#2E3433"/>
<path d="M159.389 181.918H63.0455C56.0017 181.918 50.2822 176.198 50.2822 169.154C50.2822 162.11 56.0162 156.391 63.0455 156.391H159.389V149.725H63.0455C52.3196 149.725 43.6167 158.428 43.6167 169.154C43.6167 179.88 52.3196 188.583 63.0455 188.583H159.389V181.918Z" fill="#454DFF"/>
<path d="M160.117 189.311H63.0456C51.9268 189.311 42.8892 180.273 42.8892 169.154C42.8892 158.035 51.9268 148.998 63.0456 148.998H160.117V157.119H63.0456C56.4093 157.119 51.01 162.518 51.01 169.154C51.01 175.791 56.4093 181.19 63.0456 181.19H160.117V189.311ZM63.0456 150.453C52.7418 150.453 44.3445 158.836 44.3445 169.154C44.3445 179.473 52.7273 187.855 63.0456 187.855H158.662V182.645H63.0456C55.6088 182.645 49.5546 176.591 49.5546 169.154C49.5546 161.717 55.6088 155.663 63.0456 155.663H158.662V150.453H63.0456Z" fill="#2E3433"/>
<path d="M100.448 117.519H47.5025C41.1426 117.519 35.9907 112.367 35.9907 105.993C35.9907 99.6327 41.1426 94.4808 47.5025 94.4808H100.448V117.519Z" fill="#454DFF"/>
<path d="M101.175 118.247H47.5021C40.7493 118.247 35.2627 112.745 35.2627 105.993C35.2627 99.2398 40.7493 93.7532 47.5021 93.7532H101.175V118.247ZM47.5021 95.2085C41.5498 95.2085 36.718 100.055 36.718 105.993C36.718 111.93 41.5643 116.791 47.5021 116.791H99.7198V95.2085H47.5021Z" fill="#2E3433"/>
<path d="M159.083 115.219H95.7323C90.5512 115.219 86.3599 111.014 86.3599 105.832C86.3599 100.651 90.5658 96.4601 95.7323 96.4601H159.083V115.219Z" fill="white"/>
<path d="M159.811 115.947H95.7319C90.1579 115.947 85.6318 111.406 85.6318 105.832C85.6318 100.259 90.1725 95.7324 95.7319 95.7324H159.811V115.947ZM95.7319 97.1878C90.9584 97.1878 87.0872 101.074 87.0872 105.832C87.0872 110.591 90.9729 114.492 95.7319 114.492H158.355V97.1878H95.7319Z" fill="#2E3433"/>
<path d="M163.042 113.575H96.2997C92.1229 113.575 88.732 110.184 88.732 106.007C88.732 101.83 92.1229 98.4394 96.2997 98.4394H163.042V94.4954H96.2997C89.9399 94.4954 84.7734 99.6473 84.7734 106.007C84.7734 112.367 89.9253 117.533 96.2997 117.533H163.042V113.59V113.575Z" fill="#454DFF"/>
<path d="M163.77 118.247H96.2999C89.5471 118.247 84.0459 112.745 84.0459 105.993C84.0459 99.2398 89.5471 93.7532 96.2999 93.7532H163.77V99.1525H96.2999C92.5305 99.1525 89.4598 102.223 89.4598 105.993C89.4598 109.762 92.5305 112.833 96.2999 112.833H163.77V118.232V118.247ZM96.2999 95.2085C90.3475 95.2085 85.5012 100.055 85.5012 105.993C85.5012 111.93 90.3475 116.791 96.2999 116.791H162.314V114.303H96.2999C91.7301 114.303 88.0044 110.577 88.0044 106.007C88.0044 101.437 91.7301 97.7117 96.2999 97.7117H162.314V95.2231H96.2999V95.2085Z" fill="#2E3433"/>
<path d="M74.4698 149.726H22.3685C13.4764 149.726 6.27246 142.522 6.27246 133.63C6.27246 124.737 13.4764 117.533 22.3685 117.533H74.4698V149.726Z" fill="#96999E"/>
<path d="M75.1976 150.453H22.3687C13.0836 150.453 5.54492 142.9 5.54492 133.629C5.54492 124.359 13.0981 116.806 22.3687 116.806H75.1976V150.453ZM22.3687 118.247C13.8986 118.247 7.00026 125.145 7.00026 133.615C7.00026 142.085 13.8986 148.983 22.3687 148.983H73.7422V118.247H22.3687Z" fill="#2E3433"/>
<path d="M136.263 146.509H57.1365C49.9035 146.509 44.0239 140.644 44.0239 133.397C44.0239 126.164 49.8889 120.284 57.1365 120.284H136.263V146.509Z" fill="white"/>
<path d="M136.991 147.237H57.1367C49.5107 147.237 43.2964 141.023 43.2964 133.397C43.2964 125.771 49.5107 119.556 57.1367 119.556H136.991V147.237ZM57.1367 121.012C50.3111 121.012 44.7517 126.571 44.7517 133.397C44.7517 140.222 50.3111 145.782 57.1367 145.782H135.536V121.012H57.1367Z" fill="#2E3433"/>
<path d="M141.779 144.195H57.9081C52.0722 144.195 47.3278 139.451 47.3278 133.615C47.3278 127.779 52.0722 123.035 57.9081 123.035H141.779V117.519H57.9081C49.016 117.519 41.812 124.723 41.812 133.615C41.812 142.507 49.016 149.711 57.9081 149.711H141.779V144.195Z" fill="#DBE0E6"/>
<path d="M142.507 150.453H57.9082C48.6231 150.453 41.0845 142.9 41.0845 133.63C41.0845 124.359 48.6377 116.806 57.9082 116.806H142.507V123.777H57.9082C52.4798 123.777 48.0556 128.201 48.0556 133.63C48.0556 139.058 52.4798 143.482 57.9082 143.482H142.507V150.453ZM57.9082 118.261C49.4381 118.261 42.5398 125.159 42.5398 133.63C42.5398 142.1 49.4381 148.998 57.9082 148.998H141.052V144.938H57.9082C51.6794 144.938 46.6002 139.858 46.6002 133.63C46.6002 127.401 51.6794 122.322 57.9082 122.322H141.052V118.261H57.9082Z" fill="#2E3433"/>
<path d="M85.4723 94.83H22.587C11.8611 94.83 3.1582 86.1271 3.1582 75.4012C3.1582 64.6754 11.8611 55.9724 22.587 55.9724H85.4723V94.83Z" fill="#454DFF"/>
<path d="M86.1996 95.5577H22.5867C11.4678 95.5577 2.43018 86.52 2.43018 75.4012C2.43018 64.2824 11.4678 55.2448 22.5867 55.2448H86.1996V95.5577ZM22.5867 56.7001C12.2828 56.7001 3.88552 65.0829 3.88552 75.4012C3.88552 85.7196 12.2683 94.1024 22.5867 94.1024H84.7443V56.7001H22.5867Z" fill="#2E3433"/>
<path d="M155.168 90.9443H64.5442C55.8121 90.9443 48.7246 83.8568 48.7246 75.1247C48.7246 66.3927 55.8121 59.3052 64.5442 59.3052H155.154V90.9443H155.168Z" fill="white"/>
<path d="M155.896 91.672H64.5443C55.4193 91.672 47.9971 84.2497 47.9971 75.1247C47.9971 65.9998 55.4193 58.5775 64.5443 58.5775H155.882V91.672H155.896ZM64.5589 60.0329C56.2343 60.0329 49.467 66.8002 49.467 75.1247C49.467 83.4493 56.2343 90.2166 64.5589 90.2166H154.441V60.0329H64.5443H64.5589Z" fill="#2E3433"/>
<path d="M161.82 88.1646H65.4762C58.4323 88.1646 52.7128 82.4451 52.7128 75.4012C52.7128 68.3574 58.4469 62.6379 65.4762 62.6379H161.82V55.9724H65.4762C54.7503 55.9724 46.0474 64.6754 46.0474 75.4012C46.0474 86.1271 54.7503 94.83 65.4762 94.83H161.82V88.1646Z" fill="#454DFF"/>
<path d="M162.547 95.5577H65.4758C54.357 95.5577 45.3193 86.52 45.3193 75.4012C45.3193 64.2824 54.357 55.2448 65.4758 55.2448H162.547V63.3656H65.4758C58.8395 63.3656 53.4401 68.7649 53.4401 75.4012C53.4401 82.0376 58.8395 87.4369 65.4758 87.4369H162.547V95.5577ZM65.4758 56.7001C55.172 56.7001 46.7747 65.0829 46.7747 75.4012C46.7747 85.7196 55.1574 94.1024 65.4758 94.1024H161.092V88.8923H65.4758C58.039 88.8923 51.9848 82.838 51.9848 75.4012C51.9848 67.9644 58.039 61.9102 65.4758 61.9102H161.092V56.7001H65.4758Z" fill="#2E3433"/>
<path d="M102.878 23.7657H49.9327C43.5728 23.7657 38.4209 18.6138 38.4209 12.2394C38.4209 5.87957 43.5728 0.727661 49.9327 0.727661H102.878V23.7657Z" fill="#454DFF"/>
<path d="M103.606 24.4934H49.9328C43.18 24.4934 37.6934 18.9922 37.6934 12.2394C37.6934 5.48664 43.18 0 49.9328 0H103.606V24.4934ZM49.9328 1.45534C43.9804 1.45534 39.1487 6.30163 39.1487 12.2394C39.1487 18.1772 43.995 23.0381 49.9328 23.0381H102.15V1.45534H49.9328Z" fill="#2E3433"/>
<path d="M161.529 21.4663H98.1776C92.9966 21.4663 88.8052 17.2603 88.8052 12.0793C88.8052 6.89829 93.0111 2.70691 98.1776 2.70691H161.529V21.4663Z" fill="white"/>
<path d="M162.256 22.1939H98.1772C92.6033 22.1939 88.0771 17.6533 88.0771 12.0793C88.0771 6.50536 92.6178 1.97925 98.1772 1.97925H162.256V22.1939ZM98.1772 3.43459C93.4037 3.43459 89.5325 7.32035 89.5325 12.0793C89.5325 16.8383 93.4183 20.7386 98.1772 20.7386H160.801V3.43459H98.1772Z" fill="#2E3433"/>
<path d="M165.472 19.8217H98.7304C94.5536 19.8217 91.1626 16.4308 91.1626 12.254C91.1626 8.07714 94.5536 4.68619 98.7304 4.68619H165.472V0.727661H98.7304C92.3706 0.727661 87.2041 5.87957 87.2041 12.2394C87.2041 18.5993 92.356 23.7657 98.7304 23.7657H165.472V19.8217Z" fill="#454DFF"/>
<path d="M166.2 24.4934H98.73C91.9773 24.4934 86.4761 18.9922 86.4761 12.2394C86.4761 5.48664 91.9773 0 98.73 0H166.2V5.39932H98.73C94.9607 5.39932 91.8899 8.47009 91.8899 12.2394C91.8899 16.0088 94.9607 19.0795 98.73 19.0795H166.2V24.4788V24.4934ZM98.73 1.45534C92.7777 1.45534 87.9314 6.30163 87.9314 12.2394C87.9314 18.1772 92.7777 23.0381 98.73 23.0381H164.744V20.5494H98.73C94.1603 20.5494 90.4346 16.8237 90.4346 12.254C90.4346 7.6842 94.1603 3.95853 98.73 3.95853H164.744V1.45534H98.73Z" fill="#2E3433"/>
<path d="M76.9 55.9724H24.8134C15.9212 55.9724 8.71729 48.7685 8.71729 39.8764C8.71729 30.9842 15.9212 23.7803 24.8134 23.7803H76.9V55.9724Z" fill="#96999E"/>
<path d="M77.6273 56.7001H24.813C15.5279 56.7001 7.98926 49.1469 7.98926 39.8764C7.98926 30.6058 15.5425 23.0526 24.813 23.0526H77.6273V56.7001ZM24.813 24.4934C16.3429 24.4934 9.4446 31.3917 9.4446 39.8618C9.4446 48.3319 16.3429 55.2302 24.813 55.2302H76.172V24.4934H24.813Z" fill="#2E3433"/>
<path d="M138.708 52.7415H59.5662C52.3332 52.7415 46.4536 46.8765 46.4536 39.6289C46.4536 32.3958 52.3186 26.5162 59.5662 26.5162H138.693V52.7415H138.708Z" fill="white"/>
<path d="M139.436 53.4692H59.5664C51.9404 53.4692 45.7261 47.2549 45.7261 39.6289C45.7261 32.0029 51.9404 25.7886 59.5664 25.7886H139.421V53.4692H139.436ZM59.5664 27.2585C52.7408 27.2585 47.1814 32.8179 47.1814 39.6434C47.1814 46.469 52.7408 52.0284 59.5664 52.0284H137.966V27.2585H59.5664Z" fill="#2E3433"/>
<path d="M144.224 50.442H60.3524C54.5165 50.442 49.7721 45.6976 49.7721 39.8617C49.7721 34.0258 54.5165 29.2814 60.3524 29.2814H144.224V23.7656H60.3524C51.4603 23.7656 44.2563 30.9696 44.2563 39.8617C44.2563 48.7538 51.4603 55.9578 60.3524 55.9578H144.224V50.442Z" fill="#DBE0E6"/>
<path d="M144.952 56.7001H60.3526C51.0675 56.7001 43.5288 49.1469 43.5288 39.8764C43.5288 30.6058 51.082 23.0526 60.3526 23.0526H144.952V30.0237H60.3526C54.9241 30.0237 50.4999 34.4479 50.4999 39.8764C50.4999 45.3048 54.9241 49.729 60.3526 49.729H144.952V56.7001ZM60.3526 24.4934C51.8825 24.4934 44.9842 31.3917 44.9842 39.8618C44.9842 48.3319 51.8825 55.2302 60.3526 55.2302H143.496V51.1698H60.3526C54.1237 51.1698 49.0446 46.0907 49.0446 39.8618C49.0446 33.6329 54.1237 28.5538 60.3526 28.5538H143.496V24.4934H60.3526Z" fill="#2E3433"/>
</g>
<defs>
<clipPath id="clip0_132_6687">
<rect width="166.2" height="189.311" fill="white"/>
</clipPath>
</defs>
</svg>
