<svg width="747" height="521" viewBox="0 0 747 521" fill="none" xmlns="http://www.w3.org/2000/svg">
<g clip-path="url(#clip0_168_1986)">
<path d="M86.7151 173.711C95.2513 173.427 103.522 174.356 111.422 176.264C110.68 172.034 110.097 167.779 109.938 163.368C108.029 111.217 149.942 67.4216 203.545 65.5646C228.332 64.7135 251.183 73.0185 268.892 87.3074C288.987 37.8639 337.659 2.09019 395.796 0.078409C474.106 -2.62976 539.851 56.95 542.635 133.14C542.794 137.886 542.741 142.58 542.423 147.222C555.943 139.897 571.345 135.41 587.861 134.842C643.585 132.908 690.349 175.284 692.337 229.499C694.325 283.714 650.769 329.212 595.045 331.146L84.2496 348.814V348.375C38.5993 345.641 1.72386 309.584 0.0537302 264.241C-1.72244 215.958 37.0883 175.439 86.6886 173.711H86.7151Z" fill="#050A73"/>
<path d="M142.465 171.595C151.001 171.595 159.245 172.833 167.066 174.999C166.456 170.769 166.058 166.462 166.058 162.052C166.058 109.848 209.535 67.5494 263.191 67.5494C287.978 67.5494 310.538 76.654 327.69 91.5361C349.614 42.8148 399.559 8.76917 457.722 8.76917C536.086 8.76917 599.604 70.5671 599.604 146.809C599.604 151.554 599.365 156.249 598.861 160.865C612.647 154.005 628.181 150.058 644.724 150.058C700.474 150.058 745.674 194.034 745.674 248.275C745.674 302.516 700.474 346.491 644.724 346.491H133.584V346.053C88.0924 341.72 52.5425 304.424 52.5425 259.03C52.5425 210.721 92.7847 171.569 142.438 171.569L142.465 171.595Z" fill="white"/>
<path d="M644.724 347.807H132.259V347.24C85.9722 342.236 51.2175 304.528 51.2175 259.057C51.2175 210.129 92.149 170.306 142.439 170.306C150.073 170.306 157.814 171.286 165.476 173.246C164.946 169.094 164.707 165.483 164.707 162.052C164.707 109.23 208.873 66.2605 263.165 66.2605C286.627 66.2605 309.293 74.4623 327.187 89.4218C350.383 39.5914 401.389 7.48022 457.696 7.48022C536.669 7.48022 600.903 70.0003 600.903 146.809C600.903 150.755 600.718 154.753 600.399 158.699C614.37 152.122 629.269 148.795 644.724 148.795C701.111 148.795 747 193.441 747 248.301C747 303.161 701.111 347.807 644.724 347.807ZM134.936 345.228H644.724C699.653 345.228 744.349 301.742 744.349 248.301C744.349 194.86 699.653 151.374 644.724 151.374C628.898 151.374 613.681 154.96 599.472 162.027L597.298 163.11L597.536 160.763C598.014 156.146 598.252 151.452 598.252 146.835C598.252 71.4189 535.185 10.0852 457.696 10.0852C401.866 10.0852 351.285 42.2738 328.884 92.0784L328.141 93.7033L326.789 92.5168C309.187 77.2479 286.574 68.8655 263.165 68.8655C210.331 68.8655 167.358 110.674 167.358 162.078C167.358 165.921 167.676 169.971 168.365 174.845L168.63 176.805L166.669 176.264C158.636 174.046 150.471 172.911 142.439 172.911C93.6071 172.911 53.8685 211.573 53.8685 259.082C53.8685 303.625 88.199 340.482 133.717 344.841L134.91 344.944V345.254L134.936 345.228Z" fill="#2E3433"/>
</g>
<defs>
<clipPath id="clip0_168_1986">
<rect width="747" height="520.356" fill="white"/>
</clipPath>
</defs>
</svg>
