<svg width="299" height="235" viewBox="0 0 299 235" fill="none" xmlns="http://www.w3.org/2000/svg">
<g clip-path="url(#clip0_168_942)">
<path d="M39.1617 78.4503C43.0168 78.3222 46.7522 78.7415 50.3199 79.6035C49.9847 77.6932 49.7213 75.7713 49.6495 73.7794C48.7875 50.227 67.7157 30.4486 91.9237 29.6099C103.118 29.2255 113.438 32.9762 121.435 39.4293C130.51 17.0999 152.492 0.944008 178.747 0.0354578C214.113 -1.18759 243.804 25.7195 245.061 60.1279C245.133 62.2711 245.109 64.3911 244.966 66.4878C251.072 63.1797 258.027 61.1529 265.486 60.8967C290.652 60.0231 311.771 79.1609 312.669 103.645C313.567 128.129 293.896 148.677 268.731 149.55L38.0483 157.529V157.331C17.432 156.096 0.778528 139.812 0.0242732 119.335C-0.777871 97.5299 16.7496 79.2307 39.1498 78.4503H39.1617Z" fill="#050A73"/>
<path d="M64.3391 77.4945C68.1941 77.4945 71.9175 78.0536 75.4494 79.0321C75.174 77.1218 74.9944 75.1766 74.9944 73.1847C74.9944 49.609 94.629 30.5062 118.861 30.5062C130.055 30.5062 140.243 34.6179 147.99 41.3389C157.891 19.3357 180.446 3.96021 206.714 3.96021C242.104 3.96021 270.789 31.869 270.789 66.3007C270.789 68.444 270.682 70.5639 270.454 72.6489C276.68 69.5505 283.696 67.7684 291.166 67.7684C316.344 67.7684 336.757 87.6284 336.757 112.124C336.757 136.62 316.344 156.48 291.166 156.48H60.3283V156.282C39.7839 154.325 23.729 137.482 23.729 116.982C23.729 95.1647 41.903 77.4829 64.3271 77.4829L64.3391 77.4945Z" fill="white"/>
<path d="M291.166 157.075H59.7299V156.818C38.8262 154.559 23.1306 137.529 23.1306 116.994C23.1306 94.8971 41.6158 76.9125 64.3272 76.9125C67.7753 76.9125 71.2712 77.3551 74.7312 78.2404C74.4917 76.365 74.384 74.7343 74.384 73.1851C74.384 49.3298 94.3298 29.9241 118.849 29.9241C129.445 29.9241 139.681 33.6282 147.762 40.3841C158.238 17.88 181.273 3.37817 206.702 3.37817C242.367 3.37817 271.376 31.6131 271.376 66.3011C271.376 68.0832 271.292 69.8887 271.149 71.6709C277.458 68.7006 284.187 67.198 291.166 67.198C316.632 67.198 337.356 87.3608 337.356 112.136C337.356 136.912 316.632 157.075 291.166 157.075ZM60.9391 155.91H291.166C315.973 155.91 336.158 136.271 336.158 112.136C336.158 88.0015 315.973 68.3628 291.166 68.3628C284.019 68.3628 277.147 69.9819 270.73 73.1735L269.748 73.6627L269.856 72.6027C270.071 70.5177 270.179 68.3978 270.179 66.3127C270.179 32.2538 241.697 4.55463 206.702 4.55463C181.488 4.55463 158.645 19.0914 148.528 41.5839L148.193 42.3177L147.583 41.7819C139.633 34.8862 129.421 31.1006 118.849 31.1006C94.9883 31.1006 75.5812 49.9821 75.5812 73.1968C75.5812 74.9323 75.7249 76.7611 76.0362 78.9626L76.1559 79.8478L75.2699 79.6032C71.6423 78.6015 67.9549 78.089 64.3272 78.089C42.2743 78.089 24.3278 95.5494 24.3278 117.005C24.3278 137.121 39.8319 153.767 60.3884 155.735L60.9271 155.782V155.921L60.9391 155.91Z" fill="#2E3433"/>
</g>
<defs>
<clipPath id="clip0_168_942">
<rect width="337.356" height="235" fill="white"/>
</clipPath>
</defs>
</svg>
