<svg width="92" height="16" viewBox="0 0 92 16" fill="none" xmlns="http://www.w3.org/2000/svg">
<g clip-path="url(#clip0_168_3005)">
<path d="M90.0816 0.0285645H82.7968V2.40317H86.4911C86.1192 2.93245 85.7043 3.41167 85.2394 3.84797C84.517 4.52029 83.6945 5.06746 82.7754 5.48945V8.10367C83.2296 7.93201 83.673 7.74247 84.1093 7.52074C86.0441 6.54086 87.589 5.07103 88.7441 3.11126V8.38619H91.1187V0.0285645H90.0852H90.0816Z" fill="#FF4433"/>
<path d="M6.02593 0.472168H13.629L19.6549 15.5245H13.3608L12.7278 14.1476H6.59097L6.02593 15.5245H0L6.02593 0.472168ZM11.6013 10.3103L9.65936 4.78151L7.62807 10.3103H11.6013Z" fill="#454DFF"/>
<path d="M25.4304 0.472168V8.19322C25.4304 11.0363 26.3566 12.1664 28.7241 12.1664C31.0916 12.1664 31.9963 11.0399 31.9963 8.19322V0.472168H37.7505V9.18384C37.7505 11.6657 37.2534 13.1105 36.0124 14.1727C34.6141 15.4136 32.2216 16.0001 28.7241 16.0001C24.9798 16.0001 22.5408 15.3457 21.164 13.9474C20.1018 12.8852 19.6763 11.512 19.6763 9.18741V0.472168H25.4304Z" fill="#454DFF"/>
<path d="M47.1633 11.0112C47.6818 11.8444 48.4257 12.1627 49.849 12.1627C51.2723 12.1627 51.9017 11.823 51.9017 11.1936C51.9017 10.7644 51.6764 10.5391 51.2008 10.4032C50.7252 10.2673 50.4319 10.2244 46.9344 9.88467C45.2428 9.72731 43.3903 9.36611 42.1959 8.95843C40.322 8.37193 39.3063 7.04157 39.3063 5.18909C39.3063 1.78096 42.625 0 48.9406 0C52.1449 0 54.516 0.497094 56.0502 1.48771C57.2911 2.27805 57.8562 3.13634 58.3282 4.89584H50.8146C50.4534 3.94814 49.5951 3.519 48.1074 3.519C46.9129 3.519 46.1655 3.90165 46.1655 4.51319C46.1655 5.25704 46.6626 5.39294 51.3117 5.86857C53.976 6.14037 54.7413 6.29772 56.0287 6.76978C57.8561 7.47072 58.8038 8.82253 58.8038 10.6965C58.8038 14.2834 55.5781 16 48.8298 16C45.604 16 43.165 15.5709 41.6523 14.7376C40.0287 13.8578 39.3743 12.8887 39.1704 11.0148H47.1597L47.1633 11.0112Z" fill="#454DFF"/>
<path d="M80.0644 15.4814H77.5825L76.8136 13.8578C76.0447 14.6016 75.4582 14.9628 74.5355 15.2811C73.1372 15.7532 71.4886 16.0035 69.5718 16.0035C63.1846 16.0035 59.6191 13.1604 59.6191 8.06072C59.6191 5.46439 60.6562 3.2078 62.4622 1.92393C64.2217 0.661528 66.7716 0.00708008 69.865 0.00708008C73.1158 0.00708008 75.8909 0.708019 77.6039 1.94897C79.1167 3.03256 79.7926 4.09112 80.0644 5.80771H73.2266C72.7296 4.47735 71.646 3.84436 69.933 3.84436C67.4511 3.84436 65.9598 5.3571 65.9598 7.90695C65.9598 10.6606 67.5834 12.1948 70.5409 12.1948C72.4828 12.1948 73.5664 11.6298 73.992 10.4353H71.4421V7.16309H80.0608V15.4885L80.0644 15.4814Z" fill="#454DFF"/>
</g>
<defs>
<clipPath id="clip0_168_3005">
<rect width="91.1149" height="16" fill="white"/>
</clipPath>
</defs>
</svg>
