<svg width="334" height="240" viewBox="0 0 334 240" fill="none" xmlns="http://www.w3.org/2000/svg">
<g clip-path="url(#clip0_15_55)">
<path d="M323.593 163.86C327.552 139.451 322.305 111.29 303.49 93.9116C284.771 76.6224 259.272 68.9547 240.682 51.4636C227.838 39.3772 218.518 23.1606 204.229 12.6476C189.756 2.00085 170.127 -2.09789 152.539 1.01484C144.581 2.42304 136.795 5.29452 130.278 10.0751C117.772 19.248 111.678 33.9043 106.362 47.9418C100.842 62.5194 94.575 78.479 84.3321 90.4946C73.966 102.654 57.8464 109.438 44.5904 117.822C29.7689 127.194 15.3355 140.563 13.5523 158.007C12.1703 171.517 18.3407 183.751 25.5312 194.691C35.066 209.201 46.4523 223.078 55.03 238.036C79.465 236.777 104.873 238.209 129.51 238.332C160.826 238.49 192.142 238.649 223.458 238.807C236.751 238.875 251.895 241.193 264.359 236.636C278.9 231.32 294.608 224.662 305.087 212.735C316.462 199.786 320.91 180.407 323.595 163.863L323.593 163.86Z" fill="#E1FFFB"/>
<path d="M156.518 20.4543C156.662 20.7638 156.607 21.1283 156.373 21.38L154.892 22.9692C154.511 23.3783 154.532 24.0155 154.941 24.3957L157.509 26.7899C157.915 27.1702 158.555 27.1466 158.935 26.7401L160.406 25.1641C160.65 24.9045 161.028 24.8363 161.358 24.9726C161.558 25.0539 161.76 25.13 161.962 25.1982C162.3 25.3109 162.541 25.6099 162.554 25.9665L162.63 28.1195C162.649 28.6754 163.115 29.1133 163.674 29.0924L167.183 28.9717C167.741 28.9534 168.176 28.4866 168.155 27.928L168.079 25.7515C168.066 25.408 168.266 25.0933 168.58 24.9595C168.782 24.873 169.016 24.7707 169.231 24.6685C169.54 24.5242 169.905 24.5793 170.156 24.8127L171.745 26.2943C172.152 26.6745 172.792 26.6536 173.172 26.2445L175.569 23.6772C175.949 23.2707 175.928 22.6309 175.519 22.2506L173.943 20.7795C173.683 20.5356 173.615 20.158 173.752 19.8276C173.833 19.6283 173.909 19.429 173.977 19.2245C174.092 18.8862 174.389 18.6449 174.745 18.6344L176.898 18.561C177.454 18.5426 177.892 18.0759 177.874 17.5173L177.756 14.0086C177.738 13.4527 177.271 13.0147 176.712 13.0357L174.536 13.1091C174.192 13.1222 173.88 12.923 173.744 12.6083C173.657 12.4063 173.555 12.173 173.453 11.9579C173.308 11.6485 173.363 11.284 173.597 11.0322L175.081 9.44572C175.461 9.03925 175.44 8.3994 175.034 8.01916L172.469 5.61971C172.063 5.23947 171.423 5.26045 171.043 5.66691L169.569 7.24032C169.325 7.49993 168.947 7.56811 168.617 7.42913C168.41 7.34259 168.197 7.26392 167.985 7.1905C167.647 7.07774 167.406 6.77879 167.392 6.42477L167.314 4.27182C167.293 3.71588 166.826 3.28057 166.267 3.29893L162.759 3.42743C162.203 3.4484 161.767 3.91518 161.786 4.47374L161.864 6.64767C161.878 6.9912 161.681 7.30588 161.366 7.44224C161.164 7.52878 160.934 7.63367 160.716 7.73332C160.406 7.88017 160.042 7.82248 159.79 7.59172L158.201 6.11271C157.792 5.73247 157.155 5.75607 156.775 6.16516L154.383 8.73506C154.003 9.14415 154.026 9.78138 154.435 10.1616L156.014 11.6301C156.276 11.874 156.342 12.2516 156.205 12.582C156.124 12.7813 156.048 12.9833 155.98 13.1852C155.867 13.5235 155.568 13.7647 155.212 13.7778L153.059 13.8539C152.5 13.8749 152.065 14.3416 152.086 14.8976L152.209 18.4063C152.23 18.9622 152.697 19.3975 153.253 19.3792L156.004 19.2821C156.017 19.3189 156.268 19.9351 156.512 20.4517L156.518 20.4543ZM166.947 20.7716C164.099 21.9884 160.821 20.3547 160.123 17.2734C159.604 14.9789 160.855 12.5558 163.018 11.6301C165.866 10.4107 169.144 12.0471 169.839 15.1283C170.358 17.4255 169.107 19.8486 166.944 20.7716H166.947Z" fill="#2A039F"/>
<path d="M227.373 70.3524C228.205 70.2527 228.97 70.4048 229.723 70.7457C230.074 70.903 230.457 70.9293 230.816 71.0656C231.226 71.2204 231.601 71.4511 231.97 71.6819C232.935 72.2877 233.99 73.0193 234.186 74.139C234.278 74.6583 234.165 75.188 234.05 75.7019C233.811 76.764 233.664 77.9021 233.024 78.8042C232.332 79.7823 232.041 81.0227 231.611 82.1267C230.402 85.2158 229.101 88.2682 227.803 91.3207C226.726 93.8538 225.551 96.5129 223.332 98.1466C222.635 98.6606 221.706 99.0618 220.925 98.6868C220.275 98.3748 219.965 97.6327 219.74 96.9482C217.849 91.2525 217.791 84.9641 219.577 79.2369C220.429 76.4991 221.754 73.8112 223.951 71.9703C224.932 71.1496 226.101 70.5045 227.373 70.3524Z" fill="#7C7C7C"/>
<path d="M146.61 32.3126C156.675 27.435 157.677 36.5083 157.695 36.6919C157.679 36.5293 157.252 31.6019 164.912 29.9367C166.886 29.5066 167.382 30.3851 167.416 31.3056C167.447 32.1946 167.007 33.0363 166.294 33.5713L164.028 35.2732C162.968 36.0678 162.187 37.177 161.791 38.441L160.073 43.9322C159.788 44.8448 159.706 45.8072 159.829 46.746C159.968 47.8028 160.068 48.8622 160.06 49.9295L160.031 53.6611L145.304 60.1514L143.138 55.4653L140.98 49.7879C140.98 49.7879 136.441 37.24 146.61 32.3126Z" fill="white"/>
<path d="M146.61 32.3126C156.675 27.435 157.677 36.5083 157.695 36.6919C157.679 36.5293 157.252 31.6019 164.912 29.9367C166.886 29.5066 167.382 30.3851 167.416 31.3056C167.447 32.1946 167.007 33.0363 166.294 33.5713L164.028 35.2732C162.968 36.0678 162.187 37.177 161.791 38.441L160.073 43.9322C159.788 44.8448 159.706 45.8072 159.829 46.746C159.968 47.8028 160.068 48.8622 160.06 49.9295L160.031 53.6611L145.304 60.1514L143.138 55.4653L140.98 49.7879C140.98 49.7879 136.441 37.24 146.61 32.3126V32.3126Z" stroke="#231F20" stroke-width="1.57341" stroke-miterlimit="10" stroke-linecap="round"/>
<path d="M146.442 33.1517L144.903 25.4473C144.617 24.0207 144.903 22.5417 145.703 21.3249C147.085 19.2192 149.33 16.2638 150.767 16.7279C152.24 17.2026 150.927 20.1685 149.899 22.0775C149.324 23.1422 149.311 24.4193 149.854 25.4997L153.321 32.3965L146.445 33.1465L146.442 33.1517Z" fill="white"/>
<path d="M146.306 32.4647L144.903 25.4472C144.617 24.0207 144.903 22.5417 145.703 21.3249C147.085 19.2192 149.33 16.2638 150.767 16.7279C152.24 17.2026 150.927 20.1685 149.899 22.0775C149.324 23.1422 149.311 24.4193 149.854 25.4997L152.904 30.9542" stroke="#231F20" stroke-width="1.57341" stroke-miterlimit="10" stroke-linecap="round"/>
<path d="M144.077 34.0302C144.077 34.0302 153.772 31.7409 155.253 40.8378C155.345 41.399 155.225 41.9864 154.873 42.4348C154.396 43.0432 153.494 43.4471 151.923 41.8815" stroke="#231F20" stroke-width="1.57341" stroke-miterlimit="10" stroke-linecap="round"/>
<path d="M141.373 37.8169C141.373 37.8169 150.788 35.8239 152.227 43.7355C152.316 44.2233 152.198 44.7347 151.858 45.1228C151.393 45.6525 150.52 46.0012 148.994 44.6429" stroke="#231F20" stroke-width="1.57341" stroke-miterlimit="10" stroke-linecap="round"/>
<path d="M146.812 41.3754C146.812 41.3754 144.074 43.864 145.97 49.2005" stroke="#231F20" stroke-width="1.57341" stroke-miterlimit="10" stroke-linecap="round"/>
<path d="M241.314 123.46L172.128 95.3407C170.198 94.5566 168.819 92.818 168.494 90.7569L162.801 51.891L144.074 60.9853L143.039 101.225C143.039 110.731 145.65 120.054 154.503 123.515L167.112 128.443C170.578 129.798 172.724 133.294 172.359 136.999L166.094 238.872H247.02V131.943C247.02 128.217 244.762 124.863 241.311 123.46H241.314Z" fill="white"/>
<path d="M241.314 123.46L172.128 95.3407C170.198 94.5566 168.819 92.818 168.494 90.7569L162.801 51.891L144.074 60.9853L143.039 101.225C143.039 110.731 145.65 120.054 154.503 123.515L167.112 128.443C170.578 129.798 172.724 133.294 172.359 136.999L166.094 239.213H247.02V131.943C247.02 128.217 244.762 124.863 241.311 123.46H241.314Z" stroke="#231F20" stroke-width="1.57341" stroke-miterlimit="10" stroke-linecap="round"/>
<path d="M240.726 131.985L242.292 124.113C248.68 126.88 253.387 132.502 254.989 139.278L264.781 180.722C267.666 192.924 258.409 204.625 245.869 204.625H184.959C184.959 204.625 176.988 192.714 184.959 186.966L230.754 181.59L240.726 131.988V131.985Z" fill="white"/>
<path d="M242.292 124.113C248.68 126.88 253.387 132.502 254.989 139.278L264.781 180.722C267.666 192.924 258.409 204.625 245.869 204.625H186.459C185.497 204.625 184.611 204.103 184.149 203.258C182.345 199.965 178.634 191.526 184.959 186.966L214.401 183.905" stroke="#231F20" stroke-width="1.57341" stroke-miterlimit="10" stroke-linecap="round"/>
<path d="M223.366 96.7201L222.409 115.777L215.072 120.717C209.059 124.766 200.861 121.365 199.482 114.248L197.843 105.793L198.635 93.5208L223.366 96.7201Z" fill="white"/>
<path d="M223.366 96.7201L222.409 115.777L215.266 120.586C209.159 124.698 200.835 121.244 199.435 114.014L197.84 105.791L198.632 93.5182L223.364 96.7175L223.366 96.7201Z" stroke="#231F20" stroke-width="1.57341" stroke-miterlimit="10" stroke-linecap="round"/>
<path d="M198.475 66.0439C195.737 69.1592 193.999 73.0246 193.335 77.118C191.631 87.652 189.811 110.739 206.481 111.337C220.891 111.854 225.199 94.9107 226.469 83.5585C227.397 75.2614 223.602 67.064 216.47 62.724C211.332 59.6008 204.887 58.7432 198.475 66.0412V66.0439Z" fill="white"/>
<path d="M198.475 66.0439C195.737 69.1592 193.999 73.0246 193.335 77.118C191.631 87.652 189.811 110.739 206.481 111.337C220.891 111.854 225.199 94.9107 226.469 83.5585C227.397 75.2614 223.602 67.064 216.47 62.724C211.332 59.6008 204.887 58.7432 198.475 66.0412V66.0439Z" stroke="#231F20" stroke-width="1.57341" stroke-miterlimit="10" stroke-linecap="round"/>
<path d="M221.99 88.3259C222.378 90.4868 224.444 91.9264 226.608 91.5383C228.768 91.1502 230.208 89.0838 229.82 86.9204C229.432 84.7595 227.365 83.3199 225.202 83.708C223.041 84.0961 221.601 86.1625 221.99 88.3259Z" fill="white"/>
<path d="M225.136 91.5252C225.608 91.617 226.107 91.6275 226.608 91.5357C228.768 91.1476 230.208 89.0812 229.82 86.9178C229.432 84.7569 227.365 83.3173 225.202 83.7054" stroke="#231F20" stroke-width="1.57341" stroke-miterlimit="10" stroke-linecap="round"/>
<path d="M224.612 88.499C225.105 87.3216 225.493 86.0261 226.28 84.9982C227.174 83.8312 228.435 83.4903 229.587 82.6538C232.621 80.451 233.966 76.9371 235.02 73.4834C235.728 71.1653 236.177 68.6977 235.715 66.3166C235.419 64.7877 234.632 63.2143 233.2 62.6007C231.417 61.835 229.98 63.4241 228.517 63.0649C227.4 62.7895 226.817 60.7834 226.112 60.0046C224.94 58.7039 223.66 57.5029 222.286 56.4172C219.858 54.495 217.146 52.9321 214.256 51.8176C210.695 50.4435 206.874 49.7564 203.062 49.78C201.145 49.7905 199.23 49.982 197.35 50.3543C195.745 50.6716 194.392 51.2617 193.102 52.2686C191.673 53.3831 190.508 54.87 189.979 56.6191C188.938 60.0544 190.288 64.0797 192.077 67.0325C195.955 73.4362 202.288 74.6583 209.292 73.9686C210.942 73.806 212.84 73.1347 214.492 73.4808C215.683 73.7299 216.273 74.7422 216.635 75.82C217.571 78.597 219.126 81.5131 222.1 82.5017C221.73 84.1643 218.916 90.7542 222.228 91.0401C223.644 91.1633 224.169 89.5506 224.612 88.4964V88.499Z" fill="#231F20"/>
<path d="M227.166 170.723C227.166 170.723 224.478 174.148 225.905 178.068" stroke="#231F20" stroke-width="1.57341" stroke-miterlimit="10" stroke-linecap="round"/>
<path d="M187.28 186.837L171.832 184.889L153.234 190.778C152.298 191.075 151.768 192.058 152.033 193.002C152.293 193.923 153.221 194.484 154.157 194.287L166.026 191.788C166.228 191.746 166.32 192.029 166.131 192.113L153.281 197.77C152.382 198.166 151.981 199.225 152.395 200.117C152.783 200.953 153.751 201.349 154.614 201.021L168.937 195.588C169.081 195.533 169.178 195.732 169.05 195.813L163.197 199.493C161.88 200.321 162.04 202.288 163.475 202.891C163.928 203.083 164.437 203.09 164.898 202.917L170.736 200.715L184.608 203.334C189.166 204.187 193.545 201.168 194.374 196.608C195.223 191.924 191.998 187.48 187.283 186.834L187.28 186.837Z" fill="white"/>
<path d="M187.28 186.837L171.832 184.889L153.234 190.778C152.298 191.075 151.768 192.058 152.033 193.002C152.293 193.923 153.221 194.484 154.157 194.287L166.026 191.788C166.228 191.746 166.32 192.029 166.131 192.113L153.281 197.77C152.382 198.166 151.981 199.225 152.395 200.117C152.783 200.953 153.751 201.349 154.614 201.021L168.937 195.588C169.081 195.533 169.178 195.732 169.05 195.813L163.197 199.493C161.88 200.321 162.04 202.288 163.475 202.891C163.928 203.083 164.437 203.09 164.898 202.917L170.736 200.715L184.608 203.334C189.166 204.187 193.545 201.168 194.374 196.608C195.223 191.924 191.998 187.48 187.283 186.834L187.28 186.837Z" stroke="#231F20" stroke-width="1.57341" stroke-miterlimit="10" stroke-linecap="round"/>
<path d="M164.634 102.741C164.634 102.741 163.118 98.8783 166.936 95.6895" stroke="#231F20" stroke-width="1.57341" stroke-miterlimit="10" stroke-linecap="round"/>
<path d="M202.275 89.2411L200.054 97.4281C200.001 97.6248 200.159 97.8162 200.361 97.8005L202.925 97.6143" stroke="#231F20" stroke-width="1.57341" stroke-miterlimit="10" stroke-linecap="round"/>
<path d="M210.207 99.7174C210.207 99.7174 209.851 102.796 206.56 101.928" stroke="#231F20" stroke-width="1.57341" stroke-miterlimit="10" stroke-linecap="round"/>
<path d="M200.413 80.7316C200.413 80.7316 198.066 78.917 195.168 80.2753" stroke="#231F20" stroke-width="1.57341" stroke-miterlimit="10" stroke-linecap="round"/>
<path d="M215.082 84.7228C215.082 84.7228 213.37 82.2998 210.2 82.7535" stroke="#231F20" stroke-width="1.57341" stroke-miterlimit="10" stroke-linecap="round"/>
<path d="M196.272 84.9012C196.209 85.6354 196.655 86.2726 197.266 86.3251C197.88 86.3775 198.428 85.8268 198.491 85.0926C198.554 84.3583 198.108 83.7211 197.497 83.6686C196.883 83.6162 196.335 84.1669 196.272 84.9012Z" fill="#231F20"/>
<path d="M208.941 87.6992C208.694 88.3915 208.962 89.1231 209.541 89.3303C210.121 89.5375 210.792 89.1441 211.039 88.4492C211.285 87.7569 211.018 87.0253 210.438 86.8181C209.859 86.6109 209.187 87.0043 208.941 87.6992Z" fill="#231F20"/>
<path d="M227.51 117.851L229.878 136.761H222.755L223.366 142.813L205.125 182.392" stroke="#231F20" stroke-width="1.57341" stroke-miterlimit="10" stroke-linecap="round"/>
<path d="M192.908 103.787L185.274 119.708L189.614 122.595L184.621 126.271L182.376 183.903" stroke="#231F20" stroke-width="1.57341" stroke-miterlimit="10" stroke-linecap="round"/>
<path d="M196.099 132.282L212.258 136.147L213.462 131.702L197.164 127.294L196.099 132.282Z" fill="#2A039F"/>
<path d="M194.274 141.922L210.024 145.69L211.228 141.245L195.221 136.915L194.274 141.922Z" fill="#2A039F"/>
<path d="M192.446 151.564L207.31 155.117L208.44 150.638L193.393 146.571L192.446 151.564Z" fill="#2A039F"/>
<path d="M190.618 161.204L204.779 164.592L205.933 160.121L191.521 156.444L190.618 161.204Z" fill="#2A039F"/>
<path d="M188.793 170.846L202.291 174.074L203.431 169.579L189.735 165.877L188.793 170.846Z" fill="#2A039F"/>
<path d="M186.966 180.486L199.77 183.549L201.006 178.752L187.952 175.291L186.966 180.486Z" fill="#2A039F"/>
<path d="M222.409 115.777L216.63 119.668L200.043 182.392" stroke="#231F20" stroke-width="1.57341" stroke-miterlimit="10" stroke-linecap="round"/>
<path d="M198.347 108.387L199.5 114.342L186.318 183.903" stroke="#231F20" stroke-width="1.57341" stroke-miterlimit="10" stroke-linecap="round"/>
<path d="M181.254 135.308C181.254 128.44 175.687 122.873 168.819 122.873C161.951 122.873 156.384 128.44 156.384 135.308C156.384 139.664 158.628 143.492 162.019 145.713V153.649L175.616 152.254V145.713C179.007 143.492 181.251 139.666 181.251 135.308H181.254Z" fill="#2A039F"/>
<path d="M173.012 156.696L171.976 157.561H165.247L164.277 156.67C162.276 154.829 161.138 152.233 161.138 149.513V149.235H176.497C176.497 152.115 175.22 154.847 173.012 156.696Z" fill="#7C7C7C"/>
<path d="M176.652 149.238H160.986C160.934 149.238 160.892 149.28 160.892 149.332V150.284C160.892 150.336 160.934 150.379 160.986 150.379H176.652C176.704 150.379 176.746 150.336 176.746 150.284V149.332C176.746 149.28 176.704 149.238 176.652 149.238Z" fill="#231F20"/>
<path d="M176.652 151.559H160.986C160.934 151.559 160.892 151.601 160.892 151.653V152.605C160.892 152.657 160.934 152.699 160.986 152.699H176.652C176.704 152.699 176.746 152.657 176.746 152.605V151.653C176.746 151.601 176.704 151.559 176.652 151.559Z" fill="#231F20"/>
<path d="M165.056 157.385H172.031V159.245C172.031 159.452 171.863 159.62 171.656 159.62H165.431C165.224 159.62 165.056 159.452 165.056 159.245V157.385Z" fill="#231F20"/>
<path d="M124.166 156.793C127.803 156.782 131.165 158.731 132.964 161.893L153.46 197.922L162.52 199.972C179.636 206.518 173.846 238.912 173.846 238.912L49.4706 238.697C41.121 238.51 33.4244 233.751 29.9 226.18C17.7166 199.999 65.3987 164.487 74.5639 157.981C75.5236 157.299 76.6696 156.934 77.847 156.929L124.163 156.793H124.166Z" fill="white"/>
<path d="M73.0324 159.08C70.9319 160.608 67.8795 162.903 64.3393 165.777C72.2693 171.738 84.8408 178.165 98.6449 174.47C98.6449 174.47 78.4606 171.412 73.0324 159.082V159.08Z" fill="#231F20"/>
<path d="M119.983 174.551C126.56 174.326 132.29 172.241 137.17 169.288L133.916 163.569C130.619 171.095 119.983 174.551 119.983 174.551Z" fill="#231F20"/>
<path d="M128.794 146.109C115.029 129.985 94.6012 133.095 83.3933 136.47C75.7675 138.764 70.7064 146.233 71.7737 154.126C73.9634 170.364 99.0933 174.551 99.0933 174.551H119.986C119.986 174.551 146.414 166.75 128.794 146.109Z" fill="white"/>
<path d="M99.0933 174.551C99.0933 174.551 73.9633 170.364 71.7737 154.126C70.709 146.233 75.7675 138.764 83.3933 136.47C94.6012 133.095 115.027 129.985 128.794 146.109C146.414 166.75 119.986 174.551 119.986 174.551" stroke="#231F20" stroke-width="1.57341" stroke-miterlimit="10" stroke-linecap="round"/>
<path d="M93.0664 133.6C94.5279 131.581 94.076 128.76 92.057 127.298C90.0379 125.837 87.2164 126.289 85.7549 128.308C84.2933 130.327 84.7453 133.148 86.7643 134.61C88.7833 136.071 91.6049 135.619 93.0664 133.6Z" fill="white"/>
<path d="M93.0664 133.6C94.5279 131.581 94.076 128.76 92.057 127.298C90.0379 125.837 87.2164 126.289 85.7549 128.308C84.2933 130.327 84.7453 133.148 86.7643 134.61C88.7833 136.071 91.6049 135.619 93.0664 133.6Z" stroke="#231F20" stroke-width="1.57341" stroke-miterlimit="10" stroke-linecap="round"/>
<path d="M91.1686 135.374V152.739C91.1686 155.191 92.4457 157.464 94.5409 158.739L113.023 169.989L119.986 156.777V140.322L91.1712 135.374H91.1686Z" fill="white"/>
<path d="M91.1686 135.374V151.852C91.1686 154.855 92.7341 157.637 95.2962 159.198L113.021 169.989L118.698 159.216C119.542 157.614 119.983 155.83 119.983 154.021V151.005" stroke="#231F20" stroke-width="1.57341" stroke-miterlimit="10" stroke-linecap="round"/>
<path d="M116.236 152.052C104.991 153.853 94.2263 146.796 91.3915 135.767L85.5699 113.118C85.5699 113.118 122.584 96.9745 126.329 106.591C129.316 114.258 129.345 127.937 128.86 137.93C128.513 145.032 123.256 150.927 116.236 152.052Z" fill="white"/>
<path d="M128.555 118.16C129.02 124.32 129.132 132.384 128.862 137.93C128.516 145.032 123.258 150.927 116.238 152.052C104.994 153.853 94.0322 147.069 91.221 135.096" stroke="#231F20" stroke-width="1.57341" stroke-miterlimit="10" stroke-linecap="round"/>
<path d="M102.293 117.547C100.939 117.258 99.5916 116.941 98.2515 116.6C98.0758 121.722 96.2638 126.785 93.1327 130.908C92.7472 131.416 92.2123 131.964 91.575 131.873C91.1738 131.815 90.8644 131.516 90.5838 131.23C89.7315 130.365 88.8793 129.499 88.0296 128.634C87.0174 127.604 85.937 127.181 84.7543 126.305C81.8592 124.16 79.5778 121.087 78.917 117.581C78.2561 114.075 79.3969 110.162 82.2028 107.873C85.0087 105.584 89.4772 105.298 92.2621 107.577C94.3206 98.1677 103.439 90.6756 113.238 90.3373C119.27 90.1302 125.199 92.6529 129.46 96.7542C131.052 98.2857 132.418 100.043 133.475 101.97C134.679 104.165 136.034 106.816 135.468 109.381C134.555 113.511 131.807 116.907 127.855 118.462C124.016 119.972 119.742 119.883 115.63 119.535C111.146 119.154 106.688 118.491 102.293 117.549V117.547Z" fill="#231F20"/>
<path d="M133.884 163.884L153.46 197.924L162.52 199.975C179.636 206.521 173.846 238.914 173.846 238.914" stroke="#231F20" stroke-width="1.57341" stroke-miterlimit="10" stroke-linecap="round"/>
<path d="M73.0324 159.08C73.0324 159.08 17.6877 198.619 29.9 226.178C33.2828 233.811 41.1211 238.508 49.4706 238.694C64.751 239.038 100.798 239.386 107.713 236.216C114.785 232.975 114.035 221.641 112.963 215.932C112.674 214.403 111.384 213.27 109.832 213.184L67.3786 209.03" stroke="#231F20" stroke-width="1.57341" stroke-miterlimit="10" stroke-linecap="round"/>
<path d="M110.094 218.481L124.79 219.273L141.093 227.885C141.914 228.317 142.241 229.324 141.835 230.156C141.439 230.969 140.479 231.333 139.643 230.992L129.025 226.668C128.844 226.595 128.713 226.844 128.873 226.951L139.868 234.378C140.639 234.897 140.833 235.948 140.298 236.709C139.797 237.422 138.83 237.627 138.082 237.178L125.676 229.71C125.553 229.636 125.427 229.804 125.532 229.901L130.354 234.31C131.44 235.301 130.958 237.105 129.523 237.425C129.069 237.525 128.592 237.448 128.194 237.21L123.138 234.178L109.795 234.275C105.413 234.302 101.847 230.756 101.847 226.374C101.847 221.877 105.597 218.287 110.089 218.478L110.094 218.481Z" fill="white"/>
<path d="M110.094 218.481L124.79 219.273L141.093 227.885C141.914 228.317 142.241 229.324 141.835 230.156C141.439 230.969 140.479 231.333 139.643 230.992L129.025 226.668C128.844 226.595 128.713 226.844 128.873 226.951L139.868 234.378C140.639 234.897 140.833 235.948 140.298 236.709C139.797 237.422 138.83 237.627 138.082 237.178L125.676 229.71C125.553 229.636 125.427 229.804 125.532 229.901L130.354 234.31C131.44 235.301 130.957 237.105 129.523 237.425C129.069 237.525 128.592 237.448 128.194 237.21L123.138 234.178L109.795 234.275C105.413 234.302 101.847 230.756 101.847 226.374C101.847 221.877 105.597 218.287 110.089 218.478L110.094 218.481Z" stroke="#231F20" stroke-width="1.57341" stroke-miterlimit="10" stroke-linecap="round"/>
<path d="M97.6196 224.578C97.7586 221.263 99.7542 218.484 102.547 217.17" stroke="#231F20" stroke-width="1.57341" stroke-miterlimit="10" stroke-linecap="round"/>
<path d="M71.6321 201.058C71.6321 201.058 74.2203 202.71 74.0551 207.008" stroke="#231F20" stroke-width="1.57341" stroke-miterlimit="10" stroke-linecap="round"/>
<path d="M151.907 199.91C151.907 199.91 141.502 200.07 140.007 212.298" stroke="#231F20" stroke-width="1.57341" stroke-miterlimit="10" stroke-linecap="round"/>
<path d="M157.86 207.008C157.86 207.008 149.639 207.134 148.459 216.795" stroke="#231F20" stroke-width="1.57341" stroke-miterlimit="10" stroke-linecap="round"/>
<path d="M103.439 172.131C103.439 172.131 110.834 178.246 109.716 195.769" stroke="white" stroke-width="2.09788" stroke-miterlimit="10" stroke-linecap="round"/>
<path d="M117.856 172.131C117.856 172.131 113.223 176.429 115.457 195.769" stroke="white" stroke-width="2.09788" stroke-miterlimit="10" stroke-linecap="round"/>
<path d="M117.442 130.006L119.925 137.629C119.986 137.812 119.847 138.001 119.653 137.996L117.224 137.941" stroke="#231F20" stroke-width="1.57341" stroke-miterlimit="10" stroke-linecap="round"/>
<path d="M113.716 140.778C113.716 140.778 114.172 143.671 117.245 142.724" stroke="#231F20" stroke-width="1.57341" stroke-miterlimit="10" stroke-linecap="round"/>
<path d="M118.25 124.53C118.25 124.53 120.111 122.435 123.043 123.193" stroke="#231F20" stroke-width="1.57341" stroke-miterlimit="10" stroke-linecap="round"/>
<path d="M104.758 127.95C104.758 127.95 106.536 125.781 109.494 126.421" stroke="#231F20" stroke-width="1.57341" stroke-miterlimit="10" stroke-linecap="round"/>
<path d="M122.826 127.682C123.012 128.354 122.71 129.022 122.149 129.18C121.588 129.337 120.982 128.92 120.796 128.249C120.61 127.577 120.911 126.909 121.472 126.751C122.034 126.594 122.639 127.011 122.826 127.682Z" fill="#231F20"/>
<path d="M110.351 131.165C110.537 131.836 110.236 132.505 109.674 132.662C109.113 132.819 108.508 132.402 108.321 131.731C108.135 131.06 108.437 130.391 108.998 130.234C109.559 130.076 110.165 130.493 110.351 131.165Z" fill="#231F20"/>
<path d="M79.6669 231.081H139.774V239.025H85.0218C82.0664 239.025 79.6669 236.625 79.6669 233.67V231.081Z" fill="#BDBDBD"/>
<path d="M202.778 239.024H113.928L132.397 190.12C134.075 185.678 138.329 182.736 143.078 182.736H215.082C219.409 182.736 222.401 187.063 220.873 191.112L202.778 239.022V239.024Z" fill="#BDBDBD"/>
<path d="M168.517 216.986C171.352 216.986 173.649 214.689 173.649 211.854C173.649 209.02 171.352 206.722 168.517 206.722C165.683 206.722 163.385 209.02 163.385 211.854C163.385 214.689 165.683 216.986 168.517 216.986Z" fill="white"/>
<path d="M251.793 183.648C262.557 187.002 279.595 180.727 286.533 174.512C291.768 169.823 292.352 161.765 291.684 155.272C290.102 139.944 282.154 126.059 276.028 112.213C272.281 103.743 262.075 97.0846 253.083 95.5401C246.204 94.3574 238.898 96.7883 233.79 101.543C228.684 106.3 225.768 113.209 225.477 120.182C224.94 133.05 230.101 147.906 235.901 159.213C239.908 167.028 241.98 180.591 251.793 183.648Z" fill="#231F20"/>
<path d="M225.716 167.298L200.497 195.714L186.847 182.754C184.999 180.997 182.101 180.976 180.226 182.707L172.474 189.858C170.993 191.224 170.51 193.362 171.265 195.231C175.002 204.467 186.819 230.95 199.545 231.108C214.959 231.299 234.37 193.427 234.37 193.427L225.716 167.295V167.298Z" fill="white"/>
<path d="M225.716 167.298L200.497 195.714L186.847 182.754C184.999 180.997 182.101 180.976 180.226 182.707L172.474 189.858C170.993 191.224 170.51 193.362 171.265 195.231C175.002 204.467 186.819 230.95 199.545 231.108C214.959 231.299 234.37 193.427 234.37 193.427L225.716 167.295V167.298Z" stroke="#231F20" stroke-width="1.57341" stroke-miterlimit="10" stroke-linecap="round"/>
<path d="M271.447 160.663L260.821 159.746L234.844 162.465C228.705 163.108 223.733 167.741 222.658 173.82L219.026 194.371C218.268 198.656 219.711 203.033 222.865 206.03L225.428 208.464L225.999 238.912H299.509L291.589 177.318C288.993 168.116 280.971 161.484 271.447 160.663Z" fill="white"/>
<path d="M297.526 223.5L299.509 238.912H247.893L297.526 223.5Z" fill="#231F20"/>
<path d="M225.427 208.464L225.999 238.912H299.509L291.589 177.318C288.993 168.116 280.971 161.484 271.447 160.663L260.821 159.746L234.844 162.465C231.199 162.848 227.966 164.634 225.713 167.298L222.753 170.634" stroke="#231F20" stroke-width="1.57341" stroke-miterlimit="10" stroke-linecap="round"/>
<path d="M260.824 159.746L273.123 160.808C282.55 161.621 291.22 166.328 297.005 173.817C306.117 185.618 318.476 203.896 319.418 217.27C320.467 232.159 284.171 234.808 271.012 236.211C267.639 236.57 264.422 234.624 263.229 231.451C262.112 228.475 261.401 224.119 262.529 218.127C263.05 215.366 265.153 213.168 267.891 212.536L283.085 209.035C283.085 209.035 267.86 193.43 267.671 186.008C267.479 178.587 260.819 159.746 260.819 159.746H260.824Z" fill="white"/>
<path d="M260.824 159.746L273.123 160.808C282.55 161.621 291.22 166.328 297.005 173.817C306.117 185.618 318.476 203.896 319.418 217.27C320.467 232.159 284.171 234.808 271.012 236.211C267.639 236.57 264.422 234.624 263.229 231.451C262.112 228.475 261.401 224.119 262.529 218.127C263.05 215.366 265.153 213.168 267.891 212.536L283.085 209.035" stroke="#231F20" stroke-width="1.57341" stroke-miterlimit="10" stroke-linecap="round"/>
<path d="M267.619 218.625L253.301 219.396L237.414 227.788C236.615 228.21 236.295 229.188 236.693 230.001C237.079 230.793 238.012 231.15 238.828 230.817L249.173 226.602C249.349 226.532 249.477 226.773 249.32 226.878L238.605 234.115C237.855 234.622 237.666 235.647 238.185 236.389C238.673 237.084 239.617 237.283 240.346 236.845L252.433 229.568C252.553 229.495 252.676 229.66 252.572 229.755L247.872 234.05C246.815 235.018 247.285 236.775 248.683 237.084C249.126 237.181 249.587 237.108 249.978 236.874L254.905 233.919L267.904 234.013C272.174 234.037 275.648 230.583 275.648 226.314C275.648 221.932 271.995 218.434 267.619 218.623V218.625Z" fill="white"/>
<path d="M267.619 218.625L253.301 219.396L237.414 227.788C236.615 228.21 236.295 229.188 236.693 230.001C237.079 230.793 238.012 231.15 238.828 230.817L249.173 226.602C249.349 226.532 249.477 226.773 249.32 226.878L238.605 234.115C237.855 234.622 237.666 235.647 238.185 236.389C238.673 237.084 239.617 237.283 240.346 236.845L252.433 229.568C252.553 229.495 252.676 229.66 252.572 229.755L247.872 234.05C246.815 235.018 247.285 236.775 248.683 237.084C249.126 237.181 249.587 237.108 249.978 236.874L254.905 233.919L267.904 234.013C272.174 234.037 275.648 230.583 275.648 226.314C275.648 221.932 271.995 218.434 267.619 218.623V218.625Z" stroke="#231F20" stroke-width="1.57341" stroke-miterlimit="10" stroke-linecap="round"/>
<path d="M261.991 139.113L265.733 158.044C265.987 159.329 267.049 160.296 268.35 160.43L275.646 161.185C276 161.222 276.146 161.657 275.887 161.901L252.498 199.201L240.393 162.937C240.071 162.486 240.354 161.857 240.907 161.802L244.99 161.392C246.107 161.28 246.96 160.341 246.96 159.219V140.036L261.988 139.113H261.991Z" fill="white"/>
<path d="M248.113 186.058C252.081 187.139 256.206 187.404 260.242 186.858L258.128 190.228C257.467 190.267 256.806 190.291 256.146 190.291C253.851 190.291 251.554 190.052 249.291 189.583L248.116 186.058H248.113Z" fill="#231F20"/>
<path d="M272.724 166.949L269.389 172.27C265.161 174.074 260.659 174.987 256.146 174.987C251.897 174.987 247.644 174.182 243.613 172.569L242.252 168.489C251.945 173.424 263.499 172.873 272.706 166.96C272.711 166.954 272.719 166.954 272.727 166.949H272.724Z" fill="#231F20"/>
<path d="M265.864 177.892L263.383 181.849C261.002 182.374 258.574 182.639 256.146 182.639C252.902 182.639 249.653 182.169 246.503 181.228L245.25 177.47C251.9 180.006 259.18 180.137 265.864 177.892Z" fill="#231F20"/>
<path d="M250.875 194.329C252.333 194.584 253.807 194.73 255.28 194.772L253.366 197.825C252.907 197.788 252.451 197.741 251.995 197.686L250.875 194.329Z" fill="#231F20"/>
<path d="M261.991 139.113L265.733 158.044C265.987 159.329 267.049 160.296 268.35 160.43L275.646 161.185C276 161.222 276.146 161.657 275.887 161.901L252.498 199.201L240.393 162.937C240.071 162.486 240.354 161.857 240.907 161.802L244.99 161.392C246.107 161.28 246.96 160.341 246.96 159.219V140.036L261.988 139.113H261.991Z" stroke="#231F20" stroke-width="1.57341" stroke-miterlimit="10" stroke-linecap="round"/>
<path d="M269.712 132.109C272.35 131.16 273.719 128.251 272.77 125.613C271.821 122.975 268.912 121.606 266.274 122.555C263.636 123.504 262.267 126.413 263.216 129.051C264.165 131.689 267.074 133.058 269.712 132.109Z" fill="white"/>
<path d="M269.712 132.109C272.35 131.16 273.719 128.251 272.77 125.613C271.821 122.975 268.912 121.606 266.274 122.555C263.636 123.504 262.267 126.413 263.216 129.051C264.165 131.689 267.074 133.058 269.712 132.109Z" stroke="#231F20" stroke-width="1.57341" stroke-miterlimit="10" stroke-linecap="round"/>
<path d="M266.572 114.702C266.572 114.702 274.861 147.544 251.399 151.816C227.937 156.087 233.455 112.134 233.455 112.134C233.455 112.134 248.024 91.735 266.572 114.702Z" fill="white"/>
<path d="M267.702 132.41C266.698 140.928 262.793 149.741 251.399 151.816C227.937 156.087 233.455 112.134 233.455 112.134" stroke="#231F20" stroke-width="1.57341" stroke-miterlimit="10" stroke-linecap="round"/>
<path d="M268.269 95.5374C267.091 97.0741 266.436 98.9832 266.339 100.911C266.302 101.632 266.179 102.626 266.499 103.286C266.95 104.215 267.637 105.062 268.387 105.762C268.856 106.2 269.381 106.525 269.892 106.905C270.527 107.38 270.941 107.807 271.725 108.175C274.814 109.627 278.753 109.082 281.297 106.803C283.84 104.527 284.816 100.638 283.602 97.4465C282.487 94.5199 279.634 92.3539 276.524 91.992C273.414 91.6301 270.173 93.0488 268.269 95.5348V95.5374Z" fill="#231F20"/>
<path d="M245.176 135.793L245.082 139.805C245.074 139.994 245.255 140.133 245.433 140.078L247.699 139.388" stroke="#231F20" stroke-width="1.57341" stroke-miterlimit="10" stroke-linecap="round"/>
<path d="M240.107 125.38C240.107 125.38 237.81 123.901 235.259 125.38" stroke="#231F20" stroke-width="1.57341" stroke-miterlimit="10" stroke-linecap="round"/>
<path d="M255.899 125.354C255.899 125.354 253.662 123.783 251.056 125.159" stroke="#231F20" stroke-width="1.57341" stroke-miterlimit="10" stroke-linecap="round"/>
<path d="M236.641 129.536C236.641 130.213 237.1 130.763 237.666 130.763C238.233 130.763 238.691 130.213 238.691 129.536C238.691 128.86 238.233 128.309 237.666 128.309C237.1 128.309 236.641 128.86 236.641 129.536Z" fill="#231F20"/>
<path d="M252.524 131.068C253.091 131.068 253.55 130.518 253.55 129.84C253.55 129.163 253.091 128.613 252.524 128.613C251.958 128.613 251.499 129.163 251.499 129.84C251.499 130.518 251.958 131.068 252.524 131.068Z" fill="#231F20"/>
<path d="M249.273 144.481C249.905 145.291 251.134 145.391 252.016 144.701C252.897 144.012 253.099 142.797 252.467 141.984C251.835 141.174 250.605 141.075 249.724 141.764C248.842 142.454 248.641 143.668 249.273 144.481Z" fill="#FF5722"/>
<path d="M252.05 141.245C252.05 141.245 252.307 144.13 248.745 144.295" stroke="#231F20" stroke-width="1.57341" stroke-miterlimit="10" stroke-linecap="round"/>
<path d="M279.647 202.01C279.647 202.01 277.715 204.09 279.647 206.069" stroke="#231F20" stroke-width="1.57341" stroke-miterlimit="10" stroke-linecap="round"/>
<path d="M145.695 165.402C146.576 164.385 148.131 164.311 149.107 165.239L157.983 173.71L155.274 164.93C156.698 163.1 158.571 164.93 158.571 164.93L163.315 172.962L162.538 165.974C163.414 163.881 165.625 166.163 165.625 166.163L168.979 173.382L169.464 171.517C169.464 171.517 171.166 169.372 172.511 168.591C172.834 168.405 173.243 168.51 173.442 168.824C173.778 169.351 174.189 170.29 173.961 171.496C173.599 173.405 173.148 173.154 173.148 173.154L173.083 176.576L173.531 176.594L177.147 172.724L178.912 169.635C179.683 168.284 181.12 167.45 182.675 167.45H182.702C182.875 167.45 183.011 167.6 182.993 167.77L181.755 175.396L183.024 180.405L183.132 180.562C185.644 184.241 184.946 189.226 181.519 192.074C178.726 194.395 174.777 194.72 171.641 192.887L166.781 190.047C164.568 188.754 162.609 187.071 160.996 185.08L145.682 166.191C145.493 165.961 145.498 165.628 145.695 165.402Z" fill="white"/>
<path d="M157.763 173.497L149.107 165.239C148.131 164.309 146.576 164.382 145.695 165.402C145.501 165.628 145.493 165.961 145.682 166.191L160.996 185.08C162.609 187.071 164.571 188.754 166.781 190.047L171.641 192.887C174.777 194.72 178.723 194.395 181.519 192.074C184.944 189.226 185.644 184.241 183.132 180.562L183.024 180.405L181.755 175.396L182.993 167.77C183.008 167.597 182.875 167.45 182.702 167.45H182.675C181.12 167.45 179.686 168.284 178.912 169.635L177.147 172.724L173.531 176.594" stroke="#231F20" stroke-width="1.57341" stroke-miterlimit="10" stroke-linecap="round"/>
<path d="M179.709 181.008L172.931 179.049V173.474L173.418 172.763C174.297 171.478 174.252 169.776 173.306 168.541L173.266 168.491C173.088 168.258 172.745 168.234 172.537 168.444L169.464 171.517L167.505 179.051" stroke="#231F20" stroke-width="1.57341" stroke-miterlimit="10" stroke-linecap="round"/>
<path d="M168.819 173.993L165.625 166.16C165.035 165.224 163.85 164.857 162.835 165.292C162.633 165.378 162.512 165.591 162.546 165.808L163.889 178.141" stroke="#231F20" stroke-width="1.57341" stroke-miterlimit="10" stroke-linecap="round"/>
<path d="M163.317 172.894L158.571 164.93C157.873 164.183 156.788 163.941 155.838 164.322L155.581 164.424C155.343 164.521 155.219 164.786 155.303 165.032L159.145 177.544" stroke="#231F20" stroke-width="1.57341" stroke-miterlimit="10" stroke-linecap="round"/>
<path d="M279.049 161.854L279.241 174.654L270.75 176.537L273.068 183.832L252.501 205.217" stroke="#231F20" stroke-width="1.57341" stroke-miterlimit="10" stroke-linecap="round"/>
<path d="M233.607 162.654L233.559 171.308L240.262 172.275L236.523 179.091L251.313 207.567V217.773" stroke="#231F20" stroke-width="1.57341" stroke-miterlimit="10" stroke-linecap="round"/>
<path d="M260.288 131.41C261.852 127.634 260.059 123.305 256.283 121.741C252.507 120.177 248.178 121.97 246.614 125.746C245.05 129.522 246.843 133.851 250.619 135.415C254.395 136.979 258.724 135.186 260.288 131.41Z" stroke="#231F20" stroke-width="1.57341" stroke-miterlimit="10" stroke-linecap="round"/>
<path d="M259.917 124.976L269.682 122.267" stroke="#231F20" stroke-width="1.57341" stroke-miterlimit="10" stroke-linecap="round"/>
<path d="M243.021 109.966C241.044 117.077 235.062 122.92 227.924 124.711C227.418 119.081 228.685 113.367 231.087 108.256C232.243 105.796 233.693 103.42 235.746 101.648C239.074 98.776 243.658 97.7769 248.045 97.8031C254.349 97.8425 260.63 99.8302 265.814 103.431C270.228 106.496 273.288 110.527 275.472 115.394C275.803 116.131 276.385 116.705 276.773 117.408C277.198 118.174 277.271 119.047 277.119 119.899C276.93 120.951 276.479 121.916 275.394 122.217C274.311 122.519 273.089 122.422 271.979 122.569C270.516 122.76 269.045 122.854 267.566 122.831C261.653 122.734 255.776 120.882 250.846 117.607C247.794 115.58 245.1 112.994 243.024 109.966H243.021Z" fill="#231F20"/>
<path d="M242.915 133.809C245.805 130.919 245.805 126.234 242.915 123.344C240.025 120.454 235.339 120.454 232.449 123.344C229.559 126.234 229.559 130.919 232.449 133.809C235.339 136.699 240.025 136.699 242.915 133.809Z" stroke="#231F20" stroke-width="1.57341" stroke-miterlimit="10" stroke-linecap="round"/>
<path d="M268.505 131.089V138.177C268.505 138.486 268.754 138.735 269.063 138.735H271.35C271.741 138.735 272.011 138.345 271.875 137.98L270.33 133.863" stroke="#231F20" stroke-width="1.57341" stroke-miterlimit="10" stroke-linecap="round"/>
<path d="M71.3173 125.01L68.6845 123.169V119.757C68.6845 116.608 66.1303 114.054 62.9809 114.054H14.8188C11.6694 114.054 9.11523 116.608 9.11523 119.757V132.846C9.11523 135.995 11.6694 138.549 14.8188 138.549H62.9835C66.133 138.549 68.6871 135.995 68.6871 132.846V129.02L71.1784 127.645C72.1853 127.09 72.2614 125.671 71.32 125.013L71.3173 125.01Z" fill="#BDBDBD"/>
<path d="M27.5661 117.153H16.0199C14.1559 117.153 12.6449 118.664 12.6449 120.528V132.075C12.6449 133.939 14.1559 135.45 16.0199 135.45H27.5661C29.43 135.45 30.941 133.939 30.941 132.075V120.528C30.941 118.664 29.43 117.153 27.5661 117.153Z" fill="white"/>
<path d="M20.588 129.992L17.4229 126.827L19.2323 125.021L20.588 126.376L24.3537 122.608L26.1631 124.417L20.588 129.992Z" fill="#2A039F"/>
<path d="M62.7213 119.563H33.7784C33.6408 119.563 33.5293 119.675 33.5293 119.813V122.361C33.5293 122.499 33.6408 122.611 33.7784 122.611H62.7213C62.8589 122.611 62.9704 122.499 62.9704 122.361V119.813C62.9704 119.675 62.8589 119.563 62.7213 119.563Z" fill="white"/>
<path d="M62.7213 125.036H33.7784C33.6408 125.036 33.5293 125.148 33.5293 125.285V127.834C33.5293 127.972 33.6408 128.083 33.7784 128.083H62.7213C62.8589 128.083 62.9704 127.972 62.9704 127.834V125.285C62.9704 125.148 62.8589 125.036 62.7213 125.036Z" fill="white"/>
<path d="M48.002 130.512H33.7784C33.6408 130.512 33.5293 130.623 33.5293 130.761V133.31C33.5293 133.447 33.6408 133.559 33.7784 133.559H48.002C48.1396 133.559 48.2512 133.447 48.2512 133.31V130.761C48.2512 130.623 48.1396 130.512 48.002 130.512Z" fill="white"/>
<path d="M45.2827 239.019H32.1998C28.8353 239.019 26.1028 236.287 26.1028 232.922L26.1028 213.373C26.1028 212.57 26.7558 211.917 27.5582 211.917H49.9269C50.7293 211.917 51.3823 212.57 51.3823 213.373V232.922C51.3823 236.287 48.6498 239.019 45.2853 239.019H45.2827Z" fill="white"/>
<path d="M45.2827 239.019H32.1998C28.8353 239.019 26.1028 236.287 26.1028 232.922L26.1028 213.373C26.1028 212.57 26.7558 211.917 27.5582 211.917H49.9269C50.7293 211.917 51.3823 212.57 51.3823 213.373V232.922C51.3823 236.287 48.6498 239.019 45.2853 239.019H45.2827Z" stroke="#231F20" stroke-width="1.57341" stroke-miterlimit="10" stroke-linecap="round"/>
<path d="M34.9716 194.909C35.6351 191.633 38.066 188.904 40.9742 187.259C43.885 185.615 47.2442 184.936 50.5694 184.611C49.8771 187.099 51.2433 189.627 52.0746 192.071C53.0265 194.875 53.2809 197.995 52.2844 200.78C51.7127 202.38 50.6952 203.833 49.3683 204.892C48.0178 205.97 46.4628 206.214 44.871 206.764C44.0502 207.048 43.2871 207.569 42.4191 207.606C41.1578 207.661 40.0878 206.675 39.3955 205.618C38.8239 204.742 38.399 203.767 37.7382 202.949C37.1141 202.178 36.3851 201.593 35.8842 200.704C34.9087 198.971 34.5757 196.865 34.969 194.914L34.9716 194.909Z" fill="#1AF1D4"/>
<path d="M18.1728 198.168C18.4823 195.538 19.4027 193.021 19.9482 190.43C20.512 187.755 20.6772 184.996 20.4333 182.272C23.4647 185.807 28.9402 185.83 32.8528 188.355C35.1499 189.837 36.7863 192.181 37.6543 194.751C38.6219 197.618 38.6875 200.578 37.51 203.376C37.4576 203.5 37.4052 203.625 37.3501 203.749C36.9934 204.575 36.6368 205.401 36.2828 206.227C36.1071 206.636 35.8842 207.087 35.4594 207.218C35.2706 207.276 35.066 207.257 34.8667 207.255C33.4428 207.218 32.1185 207.834 30.7365 208.083C29.4935 208.306 28.0722 208.293 26.8082 208.262C24.3459 208.199 21.7366 207.546 20.0321 205.65C18.262 203.68 17.8634 200.801 18.1702 198.171L18.1728 198.168Z" fill="#1AF1D4"/>
<path d="M47.412 189.087C43.0694 195.735 42.0834 203.985 41.6691 211.917" stroke="#231F20" stroke-width="1.57341" stroke-miterlimit="10" stroke-linecap="round"/>
<path d="M24.7313 190.857C30.5634 196.545 34.6858 203.961 36.4427 211.917" stroke="#231F20" stroke-width="1.57341" stroke-miterlimit="10" stroke-linecap="round"/>
<path d="M0.786682 239.019H328.36" stroke="#231F20" stroke-width="1.57341" stroke-miterlimit="10" stroke-linecap="round"/>
<path d="M81.3694 79.2205C83.3838 77.2061 83.3838 73.9402 81.3694 71.9258C79.355 69.9114 76.0891 69.9114 74.0747 71.9258C72.0603 73.9402 72.0603 77.2061 74.0747 79.2205C76.0891 81.2349 79.355 81.2349 81.3694 79.2205Z" fill="#E1FFFB"/>
<path d="M40.5467 77.5402C37.6988 77.5402 35.3885 79.8505 35.3885 82.6984C35.3885 85.5462 37.6988 87.8565 40.5467 87.8565C43.3946 87.8565 45.7049 85.5462 45.7049 82.6984C45.7049 79.8505 43.3946 77.5402 40.5467 77.5402ZM40.5467 85.6459C38.9182 85.6459 37.5992 84.3269 37.5992 82.6984C37.5992 81.0699 38.9182 79.7509 40.5467 79.7509C42.1752 79.7509 43.4942 81.0699 43.4942 82.6984C43.4942 84.3269 42.1752 85.6459 40.5467 85.6459Z" fill="#E1FFFB"/>
<path d="M319.441 62.092C316.594 62.092 314.283 64.4023 314.283 67.2501C314.283 70.098 316.594 72.4083 319.441 72.4083C322.289 72.4083 324.6 70.098 324.6 67.2501C324.6 64.4023 322.289 62.092 319.441 62.092ZM319.441 70.1977C317.813 70.1977 316.494 68.8786 316.494 67.2501C316.494 65.6217 317.813 64.3026 319.441 64.3026C321.07 64.3026 322.389 65.6217 322.389 67.2501C322.389 68.8786 321.07 70.1977 319.441 70.1977Z" fill="#E1FFFB"/>
<path d="M267.537 55.7736C268.741 54.5693 268.741 52.6167 267.537 51.4123C266.332 50.208 264.38 50.208 263.176 51.4123C261.971 52.6167 261.971 54.5693 263.176 55.7736C264.38 56.9779 266.332 56.9779 267.537 55.7736Z" fill="#E1FFFB"/>
<path d="M333.061 136.415C333.311 135.355 332.655 134.293 331.595 134.043C330.535 133.793 329.472 134.449 329.222 135.509C328.972 136.569 329.629 137.632 330.689 137.882C331.749 138.132 332.811 137.475 333.061 136.415Z" fill="#E1FFFB"/>
<path d="M331.724 201.706L329.773 200.641L330.838 198.69C331.113 198.184 330.927 197.552 330.421 197.277C329.915 197.001 329.283 197.188 329.008 197.694L327.943 199.645L325.992 198.58C325.486 198.305 324.854 198.491 324.579 198.997C324.303 199.503 324.489 200.135 324.995 200.41L326.947 201.475L325.882 203.426C325.606 203.932 325.793 204.564 326.299 204.84C326.805 205.115 327.437 204.929 327.712 204.423L328.777 202.472L330.728 203.536C331.234 203.812 331.866 203.625 332.141 203.119C332.417 202.613 332.231 201.981 331.724 201.706Z" fill="#E1FFFB"/>
<path d="M12.4797 217.443L10.5287 216.378L11.5934 214.427C11.8687 213.921 11.6826 213.289 11.1764 213.013C10.6703 212.738 10.0383 212.924 9.763 213.43L8.69832 215.381L6.74729 214.317C6.24118 214.041 5.6092 214.228 5.33385 214.734C5.0585 215.24 5.24469 215.872 5.7508 216.147L7.70183 217.212L6.63716 219.163C6.36181 219.669 6.548 220.301 7.05411 220.576C7.56022 220.852 8.19221 220.665 8.46756 220.159L9.53223 218.208L11.4833 219.273C11.9894 219.548 12.6214 219.362 12.8967 218.856C13.172 218.35 12.9859 217.718 12.4797 217.443Z" fill="#E1FFFB"/>
<path d="M248.808 17.3285L246.857 16.2638L247.922 14.3128C248.197 13.8067 248.011 13.1747 247.505 12.8993C246.999 12.624 246.367 12.8102 246.092 13.3163L245.027 15.2673L243.076 14.2026C242.57 13.9273 241.938 14.1135 241.663 14.6196C241.387 15.1257 241.573 15.7577 242.079 16.033L244.031 17.0977L242.966 19.0487C242.69 19.5549 242.877 20.1868 243.383 20.4622C243.889 20.7375 244.521 20.5514 244.796 20.0452L245.861 18.0942L247.812 19.1589C248.318 19.4342 248.95 19.248 249.225 18.7419C249.501 18.2358 249.315 17.6038 248.808 17.3285Z" fill="#E1FFFB"/>
<path d="M100.984 33.7994L99.0329 32.7348L100.098 30.7837C100.373 30.2776 100.187 29.6456 99.6807 29.3703C99.1745 29.0949 98.5426 29.2811 98.2672 29.7872L97.2025 31.7383L95.2515 30.6736C94.7454 30.3982 94.1134 30.5844 93.8381 31.0905C93.5627 31.5967 93.7489 32.2286 94.255 32.504L96.206 33.5687L95.1414 35.5197C94.866 36.0258 95.0522 36.6578 95.5583 36.9331C96.0644 37.2085 96.6964 37.0223 96.9718 36.5162L98.0364 34.5652L99.9875 35.6298C100.494 35.9052 101.126 35.719 101.401 35.2129C101.676 34.7068 101.49 34.0748 100.984 33.7994Z" fill="#E1FFFB"/>
</g>
<defs>
<clipPath id="clip0_15_55">
<rect width="333.125" height="240" fill="white"/>
</clipPath>
</defs>
</svg>
