<svg width="172" height="164" viewBox="0 0 172 164" fill="none" xmlns="http://www.w3.org/2000/svg">
<path d="M106.15 87.3554H0.393492L0.516886 149.577C0.516886 151.05 1.68142 152.207 3.16214 152.207H13.0953L6.65573 162.51L27.5016 152.207H103.458C104.191 152.207 104.885 151.921 105.417 151.405C105.965 150.865 106.273 150.155 106.273 149.407L106.15 87.3631V87.3554Z" fill="white"/>
<path d="M5.6146 163.459L12.4013 152.592H3.16215C1.47319 152.592 0.138997 151.274 0.131285 149.585L0.00789081 86.9699H106.535L106.659 149.399C106.659 150.256 106.319 151.065 105.687 151.675C105.078 152.268 104.291 152.592 103.458 152.592H27.5941L5.60689 163.459H5.6146ZM0.779102 87.7411L0.902496 149.577C0.902496 150.834 1.89736 151.821 3.16215 151.821H13.7972L7.71229 161.569L27.4245 151.821H103.474C104.098 151.821 104.7 151.574 105.163 151.127C105.641 150.664 105.903 150.047 105.895 149.399L105.772 87.7411H0.779102Z" fill="#353535"/>
<path d="M102.718 81.957H3.77117C1.89713 81.957 0.37784 83.4763 0.385552 85.358L0.400976 89.5149H106.134L106.119 85.358C106.119 83.484 104.584 81.957 102.71 81.957H102.718Z" fill="#454DFF"/>
<path d="M106.527 89.9006H0.0154242L0 85.3582C0 84.3479 0.385606 83.3916 1.10283 82.6821C1.81235 81.9649 2.76094 81.5715 3.77122 81.5715H102.718C104.8 81.5715 106.504 83.2682 106.512 85.3505L106.527 89.8929V89.9006ZM0.778924 89.1294H105.749L105.733 85.3582C105.733 83.7001 104.376 82.3427 102.71 82.3427H3.77122C2.96916 82.3427 2.21338 82.6589 1.64268 83.2219C1.07198 83.7926 0.763499 84.5484 0.771211 85.3505V89.1217L0.778924 89.1294Z" fill="#353535"/>
<path d="M101.677 85.0419C101.044 85.0419 100.543 85.5509 100.543 86.1833C100.543 86.8157 101.06 87.3247 101.684 87.3247C102.309 87.3247 102.818 86.8157 102.818 86.1833C102.818 85.5509 102.301 85.0419 101.677 85.0419Z" fill="white"/>
<path d="M96.5404 85.0419C95.908 85.0419 95.4067 85.5509 95.4067 86.1833C95.4067 86.8157 95.9234 87.3247 96.5481 87.3247C97.1728 87.3247 97.6895 86.8157 97.6818 86.1833C97.6818 85.5509 97.165 85.0419 96.5404 85.0419Z" fill="white"/>
<path d="M91.4117 85.0419C90.7793 85.0419 90.2781 85.5509 90.2781 86.1833C90.2781 86.8157 90.7871 87.3247 91.4194 87.3247C92.0518 87.3247 92.5531 86.8157 92.5531 86.1833C92.5531 85.5509 92.0364 85.0419 91.4117 85.0419Z" fill="white"/>
<path d="M36.3166 95.3916L36.3937 96.587H59.5763L59.4915 95.3916H36.3166Z" fill="white"/>
<path d="M47.6763 99.0007L47.7689 100.196H85.458L85.3731 99.0007H47.6763Z" fill="white"/>
<path d="M36.3703 99.0007L36.4551 100.196H46.049L45.9565 99.0007H36.3703Z" fill="#353535"/>
<path d="M36.2703 102.61L36.3475 103.813H55.5352L55.3964 102.61H36.2703Z" fill="white"/>
<path d="M56.738 102.61L56.8768 103.813H75.6712L75.5864 102.61H56.738Z" fill="#353535"/>
<path d="M19.4808 102.61L19.4731 103.813H28.905L28.9127 102.61H19.4808Z" fill="white"/>
<path d="M8.02067 99.0007L8.01296 100.196H23.3524L23.3601 99.0007H8.02067Z" fill="white"/>
<path d="M25.1186 99.0007L25.1109 100.196H29.0055L29.0209 99.0007H25.1186Z" fill="white"/>
<path d="M21.3856 95.3916L21.4011 96.587H29.1826L29.1903 95.3916H21.3856Z" fill="#454DFF"/>
<path d="M12.1622 95.3916L12.1545 96.587H19.8204L19.8049 95.3916H12.1622Z" fill="#454DFF"/>
<path d="M19.365 116.129L19.3573 117.333H28.7892L28.7969 116.129H19.365Z" fill="white"/>
<path d="M7.90494 112.52L7.89723 113.716H23.2366L23.2443 112.52H7.90494Z" fill="white"/>
<path d="M24.9951 112.52V113.716H28.8897L28.8974 112.52H24.9951Z" fill="white"/>
<path d="M19.2189 123.734L19.2112 124.929H28.6354L28.6431 123.734H19.2189Z" fill="white"/>
<path d="M7.7584 120.124L7.75068 121.32H23.0824L23.0901 120.124H7.7584Z" fill="#454DFF"/>
<path d="M24.8484 120.124L24.8407 121.32H28.743L28.7507 120.124H24.8484Z" fill="#454DFF"/>
<path d="M21.2703 108.903L21.2857 110.106H29.0672L29.0749 108.903H21.2703Z" fill="#454DFF"/>
<path d="M12.0465 108.903L12.0388 110.106H19.7046L19.6892 108.903H12.0465Z" fill="#454DFF"/>
<path d="M61.8742 95.3916L61.959 96.587H68.9924L68.9076 95.3916H61.8742Z" fill="#353535"/>
<path d="M87.8026 99.0007L87.8875 100.196H99.1471L99.0623 99.0007H87.8026Z" fill="white"/>
<path d="M77.7381 102.61L77.8229 103.813H89.2291L89.1443 102.61H77.7381Z" fill="white"/>
<path d="M72.0544 95.3916L72.2241 96.587H92.0982L91.9363 95.3916H72.0544Z" fill="white"/>
<path d="M36.1929 108.903L36.2778 110.106H59.4527L59.3756 108.903H36.1929Z" fill="white"/>
<path d="M47.5606 112.52L47.6531 113.716H85.3422L85.2574 112.52H47.5606Z" fill="white"/>
<path d="M36.2546 112.52L36.3394 113.716H45.9333L45.8407 112.52H36.2546Z" fill="white"/>
<path d="M36.1467 116.129L36.2316 117.333H55.4193L55.2805 116.129H36.1467Z" fill="white"/>
<path d="M56.6223 116.129L56.7534 117.333H75.5478L75.4707 116.129H56.6223Z" fill="white"/>
<path d="M61.7588 108.903L61.8436 110.106H68.8694L68.7922 108.903H61.7588Z" fill="white"/>
<path d="M87.6869 112.52L87.7717 113.716H99.0314L98.9466 112.52H87.6869Z" fill="white"/>
<path d="M77.6223 116.129L77.6995 117.333H89.1134L89.0286 116.129H77.6223Z" fill="#353535"/>
<path d="M47.877 120.124L47.9695 121.32H85.6586L85.5738 120.124H47.877Z" fill="white"/>
<path d="M36.5709 120.124L36.6558 121.32H46.2496L46.1571 120.124H36.5709Z" fill="white"/>
<path d="M36.4631 123.734L36.5479 124.929H55.7357L55.5969 123.734H36.4631Z" fill="white"/>
<path d="M56.9307 123.734L57.0696 124.929H75.864L75.7792 123.734H56.9307Z" fill="#353535"/>
<path d="M88.0029 120.124L88.08 121.32H99.3397L99.2549 120.124H88.0029Z" fill="#353535"/>
<path d="M77.9308 123.734L78.0157 124.929H89.4296L89.3448 123.734H77.9308Z" fill="white"/>
<path d="M71.9387 108.903L72.1084 110.106H91.9825L91.8128 108.903H71.9387Z" fill="#353535"/>
<path d="M19.0569 136.166L19.0492 137.369H28.4811L28.4888 136.166H19.0569Z" fill="white"/>
<path d="M7.59645 132.556L7.58874 133.759H22.9281L22.9358 132.556H7.59645Z" fill="white"/>
<path d="M24.6866 132.556V133.759H28.5812L28.589 132.556H24.6866Z" fill="white"/>
<path d="M18.91 143.77L18.9023 144.973H28.3265L28.3342 143.77H18.91Z" fill="white"/>
<path d="M7.4499 140.16L7.44219 141.363H22.7739L22.7816 140.16H7.4499Z" fill="#454DFF"/>
<path d="M24.5399 140.16L24.5322 141.363H28.4345L28.4422 140.16H24.5399Z" fill="#454DFF"/>
<path d="M20.9614 128.947L20.9691 130.15H28.7584L28.7661 128.947H20.9614Z" fill="#454DFF"/>
<path d="M11.738 128.947L11.7303 130.15H19.3961L19.3807 128.947H11.738Z" fill="#454DFF"/>
<path d="M35.8844 128.947L35.9693 130.15H59.1442L59.0594 128.947H35.8844Z" fill="white"/>
<path d="M47.2521 132.556L47.3446 133.759H85.0338L84.9489 132.556H47.2521Z" fill="white"/>
<path d="M35.9461 132.556L36.0309 133.759H45.6248L45.5322 132.556H35.9461Z" fill="white"/>
<path d="M35.8382 136.166L35.9231 137.369H55.1108L54.972 136.166H35.8382Z" fill="white"/>
<path d="M56.3062 136.166L56.4451 137.369H75.2395L75.1624 136.166H56.3062Z" fill="white"/>
<path d="M61.4424 128.947L61.5272 130.15H68.5607L68.4759 128.947H61.4424Z" fill="white"/>
<path d="M87.3784 132.556L87.4632 133.759H98.7152L98.6304 132.556H87.3784Z" fill="white"/>
<path d="M77.3138 136.166L77.391 137.369H88.8049L88.7201 136.166H77.3138Z" fill="#353535"/>
<path d="M47.5685 140.16L47.6533 141.363H85.3501L85.2653 140.16H47.5685Z" fill="white"/>
<path d="M36.2625 140.16L36.3473 141.363H45.9412L45.8486 140.16H36.2625Z" fill="white"/>
<path d="M36.1542 143.77L36.2391 144.973H55.4268L55.288 143.77H36.1542Z" fill="white"/>
<path d="M56.6223 143.77L56.7611 144.973H75.5555L75.4707 143.77H56.6223Z" fill="#353535"/>
<path d="M87.6944 140.16L87.7715 141.363H99.0312L98.9464 140.16H87.6944Z" fill="#353535"/>
<path d="M77.6223 143.77L77.7072 144.973H89.1211L89.0363 143.77H77.6223Z" fill="white"/>
<path d="M71.6302 128.947L71.7922 130.15H91.674L91.5043 128.947H71.6302Z" fill="#353535"/>
<path d="M65.1503 5.78397H170.907L170.783 68.0053C170.783 69.4783 169.619 70.6352 168.138 70.6352H158.205L164.644 80.9385L143.798 70.6352H67.8419C67.1092 70.6352 66.4151 70.3498 65.883 69.8331C65.3354 69.2932 65.0269 68.5837 65.0269 67.8357L65.1503 5.79169V5.78397Z" fill="white"/>
<path d="M165.686 81.8872L158.899 71.0208H168.138C169.827 71.0208 171.161 69.7021 171.169 68.0131L171.292 5.39844H64.7648L64.6414 67.828C64.6414 68.6841 64.9808 69.4938 65.6132 70.1031C66.2224 70.6969 67.0091 71.0208 67.842 71.0208H143.706L165.693 81.8872H165.686ZM170.521 6.16966L170.398 68.0054C170.398 69.2625 169.403 70.2496 168.138 70.2496H157.503L163.588 79.9977L143.876 70.2496H67.8265C67.2019 70.2496 66.6003 70.0028 66.1376 69.5555C65.6594 69.0928 65.3972 68.4758 65.4049 67.828L65.5283 6.16966H170.521Z" fill="#353535"/>
<path d="M68.5822 0.385523H167.529C169.403 0.385523 170.922 1.90481 170.914 3.78657L170.899 7.9434H65.1657L65.1812 3.78657C65.1812 1.91252 66.7159 0.385523 68.5899 0.385523H68.5822Z" fill="#454DFF"/>
<path d="M64.7724 8.32909H171.284L171.3 3.78665C171.3 2.77636 170.914 1.82006 170.197 1.11054C169.487 0.393318 168.539 0 167.529 0H68.5822C66.4999 0 64.7955 1.69667 64.7878 3.77894L64.7724 8.32137V8.32909ZM170.521 7.55787H65.5513L65.5667 3.78665C65.5667 2.12854 66.9241 0.771212 68.5899 0.771212H167.529C168.331 0.771212 169.086 1.08741 169.657 1.65039C170.228 2.22109 170.536 2.97688 170.529 3.77894V7.55016L170.521 7.55787Z" fill="#353535"/>
<path d="M69.6233 3.47045C70.2557 3.47045 70.757 3.97945 70.757 4.61184C70.757 5.24424 70.2402 5.75324 69.6156 5.75324C68.9909 5.75324 68.4819 5.24424 68.4819 4.61184C68.4819 3.97945 68.9986 3.47045 69.6233 3.47045Z" fill="white"/>
<path d="M74.7594 3.47045C75.3918 3.47045 75.8931 3.97945 75.8931 4.61184C75.8931 5.24424 75.3764 5.75324 74.7517 5.75324C74.127 5.75324 73.6103 5.24424 73.618 4.61184C73.618 3.97945 74.1348 3.47045 74.7594 3.47045Z" fill="white"/>
<path d="M79.8881 3.47046C80.5205 3.47046 81.0218 3.97945 81.0218 4.61185C81.0218 5.24424 80.5127 5.75324 79.8804 5.75324C79.248 5.75324 78.7467 5.24424 78.7467 4.61185C78.7467 3.97945 79.2634 3.47046 79.8881 3.47046Z" fill="white"/>
<path d="M134.983 13.8202L134.906 15.0156H111.724L111.809 13.8202H134.983Z" fill="white"/>
<path d="M123.624 17.4293L123.531 18.6247H85.8421L85.9269 17.4293H123.624Z" fill="white"/>
<path d="M134.929 17.4293L134.845 18.6247H125.251L125.343 17.4293H134.929Z" fill="#353535"/>
<path d="M135.03 21.0386L134.953 22.2417H115.765L115.904 21.0386H135.03Z" fill="white"/>
<path d="M114.562 21.0386L114.423 22.2417H95.6288L95.7137 21.0386H114.562Z" fill="#353535"/>
<path d="M151.819 21.0386L151.827 22.2417H142.395L142.387 21.0386H151.819Z" fill="white"/>
<path d="M163.28 17.4293L163.287 18.6247H147.948L147.94 17.4293H163.28Z" fill="white"/>
<path d="M146.181 17.4293L146.189 18.6247H142.295L142.279 17.4293H146.181Z" fill="white"/>
<path d="M149.914 13.8202L149.899 15.0156H142.117L142.11 13.8202H149.914Z" fill="#454DFF"/>
<path d="M159.138 13.8202L159.146 15.0156H151.48L151.495 13.8202H159.138Z" fill="#454DFF"/>
<path d="M151.935 34.558L151.943 35.7611H142.511L142.503 34.558H151.935Z" fill="white"/>
<path d="M163.395 30.9487L163.402 32.1441H148.063L148.055 30.9487H163.395Z" fill="white"/>
<path d="M146.305 30.9487V32.1441H142.41L142.403 30.9487H146.305Z" fill="white"/>
<path d="M152.082 42.1621L152.089 43.3575H142.665L142.657 42.1621H152.082Z" fill="white"/>
<path d="M163.541 38.5528L163.549 39.7482H148.217L148.21 38.5528H163.541Z" fill="#454DFF"/>
<path d="M146.451 38.5528L146.459 39.7482H142.557L142.549 38.5528H146.451Z" fill="#454DFF"/>
<path d="M150.03 27.3319L150.015 28.535H142.233L142.225 27.3319H150.03Z" fill="#454DFF"/>
<path d="M159.254 27.3319L159.262 28.535H151.596L151.611 27.3319H159.254Z" fill="#454DFF"/>
<path d="M109.426 13.8202L109.341 15.0156H102.308L102.392 13.8202H109.426Z" fill="#353535"/>
<path d="M83.4974 17.4293L83.4126 18.6247H72.1529L72.2377 17.4293H83.4974Z" fill="white"/>
<path d="M93.562 21.0386L93.4771 22.2417H82.0709L82.1558 21.0386H93.562Z" fill="white"/>
<path d="M99.2456 13.8202L99.076 15.0156H79.2018L79.3638 13.8202H99.2456Z" fill="white"/>
<path d="M135.107 27.3319L135.022 28.535H111.847L111.924 27.3319H135.107Z" fill="white"/>
<path d="M123.739 30.9487L123.647 32.1441H85.9578L86.0426 30.9487H123.739Z" fill="white"/>
<path d="M135.045 30.9487L134.96 32.1441H125.366L125.459 30.9487H135.045Z" fill="white"/>
<path d="M135.153 34.558L135.068 35.7611H115.881L116.02 34.558H135.153Z" fill="white"/>
<path d="M114.678 34.558L114.547 35.7611H95.7523L95.8294 34.558H114.678Z" fill="white"/>
<path d="M109.541 27.3319L109.456 28.535H102.431L102.508 27.3319H109.541Z" fill="white"/>
<path d="M83.6132 30.9487L83.5283 32.1441H72.2686L72.3535 30.9487H83.6132Z" fill="white"/>
<path d="M93.6777 34.558L93.6006 35.7611H82.1867L82.2715 34.558H93.6777Z" fill="#353535"/>
<path d="M123.423 38.5528L123.331 39.7482H85.6414L85.7263 38.5528H123.423Z" fill="white"/>
<path d="M134.729 38.5528L134.645 39.7482H125.051L125.143 38.5528H134.729Z" fill="white"/>
<path d="M134.837 42.1621L134.752 43.3575H115.564L115.703 42.1621H134.837Z" fill="white"/>
<path d="M114.369 42.1621L114.23 43.3575H95.4361L95.5209 42.1621H114.369Z" fill="#353535"/>
<path d="M83.2972 38.5528L83.22 39.7482H71.9603L72.0452 38.5528H83.2972Z" fill="#353535"/>
<path d="M93.3692 42.1621L93.2844 43.3575H81.8705L81.9553 42.1621H93.3692Z" fill="white"/>
<path d="M99.3614 27.3319L99.1917 28.535H79.3176L79.4872 27.3319H99.3614Z" fill="#353535"/>
<path d="M152.243 54.5941L152.251 55.7972H142.819L142.811 54.5941H152.243Z" fill="white"/>
<path d="M163.704 50.9848L163.711 52.1879H148.372L148.364 50.9848H163.704Z" fill="white"/>
<path d="M146.614 50.9848V52.1879H142.719L142.711 50.9848H146.614Z" fill="white"/>
<path d="M152.39 62.1982L152.397 63.4013H142.973L142.965 62.1982H152.39Z" fill="white"/>
<path d="M163.85 58.5889L163.858 59.792H148.526L148.518 58.5889H163.85Z" fill="#454DFF"/>
<path d="M146.76 58.5889L146.768 59.792H142.866L142.858 58.5889H146.76Z" fill="#454DFF"/>
<path d="M150.338 47.3757L150.331 48.5788H142.541L142.534 47.3757H150.338Z" fill="#454DFF"/>
<path d="M159.562 47.3757L159.57 48.5788H151.904L151.919 47.3757H159.562Z" fill="#454DFF"/>
<path d="M135.416 47.3757L135.331 48.5788H112.156L112.241 47.3757H135.416Z" fill="white"/>
<path d="M124.048 50.9848L123.955 52.1879H86.2663L86.3511 50.9848H124.048Z" fill="white"/>
<path d="M135.354 50.9848L135.269 52.1879H125.675L125.768 50.9848H135.354Z" fill="white"/>
<path d="M135.462 54.5941L135.377 55.7972H116.19L116.328 54.5941H135.462Z" fill="white"/>
<path d="M114.994 54.5941L114.855 55.7972H96.0606L96.1377 54.5941H114.994Z" fill="white"/>
<path d="M109.858 47.3757L109.773 48.5788H102.739L102.824 47.3757H109.858Z" fill="white"/>
<path d="M83.9217 50.9848L83.8368 52.1879H72.5848L72.6697 50.9848H83.9217Z" fill="white"/>
<path d="M93.9862 54.5941L93.9091 55.7972H82.4951L82.58 54.5941H93.9862Z" fill="#353535"/>
<path d="M123.732 58.5889L123.647 59.792H85.9499L86.0348 58.5889H123.732Z" fill="white"/>
<path d="M135.038 58.5889L134.953 59.792H125.359L125.451 58.5889H135.038Z" fill="white"/>
<path d="M135.146 62.1982L135.061 63.4013H115.873L116.012 62.1982H135.146Z" fill="white"/>
<path d="M114.678 62.1982L114.539 63.4013H95.7446L95.8294 62.1982H114.678Z" fill="#353535"/>
<path d="M83.6057 58.5889L83.5285 59.792H72.2688L72.3537 58.5889H83.6057Z" fill="#353535"/>
<path d="M93.6777 62.1982L93.5929 63.4013H82.1789L82.2638 62.1982H93.6777Z" fill="white"/>
<path d="M99.6698 47.3757L99.5079 48.5788H79.6261L79.7957 47.3757H99.6698Z" fill="#353535"/>
</svg>
