<svg width="36" height="36" viewBox="0 0 36 36" fill="none" xmlns="http://www.w3.org/2000/svg">
<g clip-path="url(#clip0_132_3974)">
<path fill-rule="evenodd" clip-rule="evenodd" d="M18.0005 0.75C13.7273 0.752217 9.59426 2.26569 6.34036 5.01978C3.08647 7.77388 0.923916 11.589 0.239378 15.783C-0.44516 19.977 0.392951 24.2763 2.60387 27.9123C4.81478 31.5482 8.25432 34.2836 12.3075 35.6295C13.2016 35.7954 13.5385 35.2412 13.5385 34.77C13.5385 34.2988 13.5206 32.9325 13.5146 31.4388C8.50715 32.5206 7.44904 29.3257 7.44904 29.3257C6.63235 27.2512 5.45202 26.7058 5.45202 26.7058C3.81863 25.5974 5.57423 25.6182 5.57423 25.6182C7.38347 25.7456 8.33429 27.4645 8.33429 27.4645C9.93787 30.2 12.5459 29.4087 13.5712 28.9464C13.7322 27.7876 14.2002 26.9992 14.7158 26.5517C10.7158 26.1013 6.51312 24.5661 6.51312 17.7081C6.48833 15.9296 7.15209 14.2096 8.36708 12.904C8.18228 12.4535 7.56528 10.6338 8.54292 8.16215C8.54292 8.16215 10.0541 7.68203 13.4938 9.99666C16.4441 9.19444 19.5569 9.19444 22.5072 9.99666C25.9438 7.68203 27.452 8.16215 27.452 8.16215C28.4326 10.6279 27.8157 12.4476 27.6309 12.904C28.8497 14.2098 29.5148 15.9328 29.4878 17.7141C29.4878 24.5868 25.2762 26.1013 21.2702 26.5428C21.914 27.1 22.4893 28.1877 22.4893 29.8592C22.4893 32.2538 22.4684 34.1802 22.4684 34.77C22.4684 35.2471 22.7933 35.8043 23.7054 35.6295C27.759 34.2835 31.1989 31.5476 33.4097 27.911C35.6206 24.2744 36.4583 19.9744 35.773 15.7801C35.0877 11.5857 32.924 7.77053 29.6691 5.01691C26.4141 2.26328 22.2801 0.750812 18.0064 0.75H18.0005Z" fill="inherit"/>
<path d="M6.81659 26.4479C6.77784 26.5369 6.63478 26.5635 6.51853 26.5013C6.40229 26.4391 6.31586 26.3235 6.35758 26.2316C6.39931 26.1397 6.5394 26.116 6.65565 26.1783C6.77189 26.2405 6.8613 26.359 6.81659 26.4479Z" fill="white"/>
<path d="M7.54697 27.2571C7.48524 27.288 7.41462 27.2966 7.3472 27.2815C7.27977 27.2664 7.21974 27.2284 7.17737 27.1741C7.06113 27.0496 7.03727 26.8777 7.12669 26.8007C7.21611 26.7236 7.37707 26.7592 7.49332 26.8837C7.60956 27.0081 7.63638 27.18 7.54697 27.2571Z" fill="white"/>
<path d="M8.25631 28.2854C8.14602 28.3625 7.95823 28.2854 7.85391 28.1313C7.82506 28.1037 7.80213 28.0705 7.78645 28.0339C7.77078 27.9972 7.7627 27.9578 7.7627 27.9179C7.7627 27.8781 7.77078 27.8387 7.78645 27.802C7.80213 27.7653 7.82506 27.7322 7.85391 27.7045C7.96419 27.6305 8.15198 27.7045 8.25631 27.8557C8.36063 28.0068 8.36361 28.2084 8.25631 28.2854Z" fill="white"/>
<path d="M9.21905 29.2812C9.12069 29.3909 8.92099 29.3613 8.75706 29.2131C8.59312 29.0649 8.55437 28.8634 8.65273 28.7567C8.75109 28.65 8.95079 28.6796 9.12069 28.8248C9.29058 28.9701 9.32337 29.1746 9.21905 29.2812Z" fill="white"/>
<path d="M10.5693 29.8621C10.5246 30.0014 10.3219 30.0636 10.1192 30.0043C9.9165 29.9451 9.78237 29.7791 9.82112 29.6368C9.85987 29.4946 10.0655 29.4294 10.2712 29.4946C10.4769 29.5598 10.608 29.7169 10.5693 29.8621Z" fill="white"/>
<path d="M12.0417 29.9629C12.0417 30.1081 11.8748 30.2326 11.6602 30.2355C11.4456 30.2385 11.2698 30.12 11.2698 29.9747C11.2698 29.8295 11.4367 29.705 11.6513 29.7021C11.8659 29.6991 12.0417 29.8147 12.0417 29.9629Z" fill="white"/>
<path d="M13.4128 29.7347C13.4397 29.88 13.2906 30.0311 13.076 30.0667C12.8614 30.1022 12.6736 30.0163 12.6468 29.874C12.62 29.7318 12.775 29.5777 12.9836 29.5392C13.1923 29.5006 13.386 29.5895 13.4128 29.7347Z" fill="white"/>
</g>
<defs>
<clipPath id="clip0_132_3974">
<rect width="36" height="36" fill="white"/>
</clipPath>
</defs>
</svg>
