<svg width="36" height="36" viewBox="0 0 36 36" fill="none" xmlns="http://www.w3.org/2000/svg">
<path d="M20.3062 17.7416C20.3062 23.3976 15.7604 27.9828 10.1533 27.9828C4.54609 27.9828 0 23.3966 0 17.7416C0 12.0865 4.54575 7.5 10.1533 7.5C15.7608 7.5 20.3062 12.0855 20.3062 17.7416Z" fill="inherit"/>
<path d="M31.4442 17.7416C31.4442 23.0656 29.1713 27.3832 26.3675 27.3832C23.5638 27.3832 21.2909 23.0656 21.2909 17.7416C21.2909 12.4176 23.5634 8.09998 26.3672 8.09998C29.1709 8.09998 31.4438 12.4162 31.4438 17.7416" fill="inherit"/>
<path d="M36 17.7415C36 22.5105 35.2008 26.3789 34.2146 26.3789C33.2283 26.3789 32.4294 22.5115 32.4294 17.7415C32.4294 12.9715 33.2287 9.10413 34.2146 9.10413C35.2004 9.10413 36 12.9711 36 17.7415Z" fill="inherit"/>
</svg>
