<svg width="28" height="24" viewBox="0 0 28 24" fill="none" xmlns="http://www.w3.org/2000/svg">
<path d="M6.24 23.632C9.248 23.632 11.36 21.584 11.36 18.256C11.36 15.184 8.992 13.328 6.24 13.328C5.984 13.328 5.792 13.328 5.536 13.392C5.536 9.296 7.648 6.544 11.808 4.304L9.632 0.143997C3.232 3.472 0.0320001 8.4 0.0320001 14.928C0.0320001 20.432 2.208 23.632 6.24 23.632ZM22.24 23.632C25.184 23.632 27.36 21.584 27.36 18.256C27.36 15.184 24.992 13.328 22.24 13.328C21.984 13.328 21.792 13.328 21.536 13.392C21.536 9.296 23.648 6.544 27.808 4.304L25.632 0.143997C19.232 3.472 16.032 8.4 16.032 14.928C16.032 20.432 18.208 23.632 22.24 23.632Z" fill="#2A039F"/>
</svg>
