<?xml version="1.0" encoding="UTF-8"?>
<svg version="1.1" xmlns="http://www.w3.org/2000/svg" width="675" height="675">
<path d="M0 0 C222.75 0 445.5 0 675 0 C675 222.75 675 445.5 675 675 C452.25 675 229.5 675 0 675 C0 452.25 0 229.5 0 0 Z " fill="#FEFEFE" transform="translate(0,0)"/>
<path d="M0 0 C1.73044494 0.79981068 3.4609517 1.59949146 5.19270325 2.39646912 C6.47927198 2.98976836 7.76470685 3.58553128 9.04911804 4.18348694 C18.01646249 8.35534202 27.06782996 12.3404049 36.10897827 16.34899902 C39.07380258 17.66477875 42.03677732 18.98463876 44.99926758 20.30566406 C49.4644829 22.29559385 53.93361979 24.27633887 58.40774536 26.24615479 C59.83391768 26.87414178 61.25938967 27.5037244 62.68380737 28.13568115 C64.33489619 28.86600546 65.99142178 29.584006 67.6484375 30.30078125 C68.49583496 30.66985596 69.34323242 31.03893066 70.21630859 31.41918945 C80.94326343 35.02557429 90.30092064 30.96970093 99.97363281 26.5 C103.06203209 25.07749152 106.16639283 23.69380228 109.2734375 22.3125 C114.21399611 20.11262295 119.14856886 17.90018813 124.078125 15.67578125 C132.56724993 11.8465684 141.07903168 8.06919213 149.59326172 4.29614258 C150.62725098 3.83747803 151.66124023 3.37881348 152.7265625 2.90625 C153.72051025 2.46732422 154.71445801 2.02839844 155.73852539 1.57617188 C157.73506322 0.67831663 159.72116151 -0.2430583 161.69702148 -1.18554688 C162.65423096 -1.63994141 163.61144043 -2.09433594 164.59765625 -2.5625 C165.43949463 -2.97113281 166.28133301 -3.37976563 167.14868164 -3.80078125 C172.7689512 -5.90209946 178.369772 -5.49342219 184 -3.6875 C191.61026937 1.79897326 194.87723062 9.30161495 198.52352905 17.65631104 C199.78441683 20.54470353 201.07221722 23.42086513 202.35771179 26.29837036 C203.04524053 27.83849638 203.7313406 29.37926089 204.41609192 30.92062378 C208.26317487 39.57596564 212.21379849 48.18312761 216.18103027 56.78393555 C217.35620698 59.33421678 218.52646048 61.88671516 219.69628906 64.43945312 C220.42617796 66.0248567 221.15630948 67.6101486 221.88671875 69.1953125 C222.212202 69.90756989 222.53768524 70.61982727 222.87303162 71.35366821 C223.78786631 73.33142038 224.72865395 75.29324743 225.6875 77.25 C225.97766998 77.85857849 226.26783997 78.46715698 226.56680298 79.09417725 C230.78093127 87.26040391 237.40202863 91.0140292 245.73046875 94.24609375 C246.60048019 94.59670868 247.47049164 94.94732361 248.36686707 95.30856323 C250.23158834 96.05824877 252.09878436 96.80180333 253.96820068 97.53970337 C256.90871377 98.70081243 259.84203043 99.87859225 262.77392578 101.0612793 C266.78154192 102.67680813 270.79129206 104.28681712 274.80322266 105.89160156 C282.79552757 109.09140831 290.77347759 112.32502771 298.7328186 115.60598755 C301.0152018 116.54308047 303.30264762 117.46692794 305.59057617 118.39038086 C306.98516708 118.96394287 308.37947129 119.53820265 309.7734375 120.11328125 C310.9701709 120.60094971 312.1669043 121.08861816 313.39990234 121.59106445 C319.14617022 124.49065529 323.59177889 127.96283668 325.6875 134.25 C326.3990899 141.86645292 325.23752124 148.03092731 322.4609375 155.0859375 C321.9512014 156.44474785 321.9512014 156.44474785 321.4311676 157.83100891 C320.70206939 159.76675751 319.96461527 161.69937649 319.2194519 163.6289978 C318.04683771 166.66555851 316.89709096 169.7099692 315.75219727 172.75708008 C312.38294714 181.69777609 308.94637976 190.61168809 305.4609375 199.50769043 C304.14842654 202.86204226 302.84736482 206.22078878 301.54644775 209.57965088 C300.6476124 211.8796382 299.72693174 214.16996639 298.80419922 216.46044922 C294.59210395 227.12778306 292.92286922 235.69785655 296.875 246.8125 C297.26051025 247.90957275 297.26051025 247.90957275 297.65380859 249.02880859 C303.53016248 265.47934387 309.97204594 281.75328594 316.33227539 298.02185059 C317.46266536 300.92199641 318.58083989 303.8267546 319.69647217 306.73260498 C320.22594931 308.10313232 320.76086085 309.47157438 321.30157471 310.83770752 C327.34668779 326.1207651 327.34668779 326.1207651 325.0234375 334.703125 C324.70632813 335.29609375 324.38921875 335.8890625 324.0625 336.5 C323.76085937 337.10328125 323.45921875 337.7065625 323.1484375 338.328125 C318.73123832 344.13898596 312.98741287 346.74141419 306.41015625 349.42578125 C305.4990358 349.80680496 304.58791534 350.18782867 303.64918518 350.58039856 C291.09941614 355.79702703 278.44597052 360.76539503 265.80151367 365.74682617 C240.88561987 373.9651371 240.88561987 373.9651371 224.515625 392.75390625 C224.23578766 393.37776215 223.95595032 394.00161804 223.66763306 394.64437866 C223.06423088 395.99247781 222.46516424 397.34252442 221.87005615 398.69430542 C220.91942426 400.85355698 219.95766404 403.00752947 218.99267578 405.16040039 C217.9670632 407.44878272 216.94214235 409.73744762 215.92056274 412.02763367 C212.22984152 420.29932146 208.45956703 428.53402009 204.67614746 436.76364136 C203.58565587 439.13710114 202.49818659 441.511927 201.41113281 443.88696289 C189.85062091 469.10681773 189.85062091 469.10681773 181.375 472.625 C172.24829682 474.17189884 165.23967879 471.08792529 157.0625 467.25 C155.30814225 466.44832749 153.55373656 465.64675599 151.79808044 464.84793091 C150.52642533 464.26912993 149.25541507 463.68891041 147.98500061 463.10739136 C140.01643266 459.4666496 131.9792051 455.98314157 123.94439697 452.49169922 C121.4347457 451.4009664 118.92599132 450.30819643 116.41748047 449.21484375 C112.55993617 447.53405799 108.70045754 445.85778557 104.83978271 444.1842041 C102.74179502 443.2735669 100.64550923 442.35909548 98.54931641 441.44433594 C97.28947337 440.89758976 96.02954991 440.35102883 94.76953125 439.8046875 C93.68518799 439.33272949 92.60084473 438.86077148 91.48364258 438.37451172 C79.33398362 433.48833961 69.04122156 437.74286843 57.49609375 442.58984375 C54.27604623 444.01189519 51.07389941 445.46851055 47.875 446.9375 C45.37045926 448.07312122 42.86534067 449.20737853 40.359375 450.33984375 C39.69191757 450.64197784 39.02446014 450.94411194 38.33677673 451.25540161 C29.7187635 455.15063286 21.06561596 458.96641687 12.40884399 462.77456665 C10.55764868 463.589453 8.70703843 464.40566977 6.85702515 465.22323608 C4.24849256 466.37590226 1.63817614 467.52442928 -0.97265625 468.671875 C-1.75682922 469.01920181 -2.5410022 469.36652863 -3.34893799 469.72438049 C-4.07691589 470.04317673 -4.8048938 470.36197296 -5.55493164 470.69042969 C-6.18693985 470.96876648 -6.81894806 471.24710327 -7.47010803 471.53387451 C-12.33663892 473.42546266 -17.29273592 474.25467436 -22.3671875 472.56640625 C-30.4043864 468.91175543 -33.9399658 462.61768611 -37.4296875 454.85546875 C-37.80395874 454.04265442 -38.17822998 453.22984009 -38.56384277 452.39239502 C-39.78041768 449.74464777 -40.98390057 447.09116719 -42.1875 444.4375 C-43.02992007 442.59930481 -43.87319056 440.76149913 -44.71728516 438.92407227 C-48.75240054 430.1264934 -52.74142702 421.30820026 -56.71875 412.484375 C-57.39859736 410.97892122 -58.07844755 409.47346871 -58.75830078 407.96801758 C-60.01475877 405.18493139 -61.26215691 402.39804719 -62.50341797 399.6081543 C-69.09583598 384.87380641 -73.83096349 378.35130936 -89 372.25 C-90.21574707 371.75161621 -91.43149414 371.25323242 -92.68408203 370.73974609 C-100.34387011 367.6079692 -108.0381115 364.56571231 -115.74256897 361.54571533 C-120.26075026 359.7733843 -124.77514944 357.9915078 -129.28970337 356.20996094 C-132.65079891 354.8894195 -136.01794096 353.58520804 -139.38549805 352.28125 C-141.49426783 351.45125717 -143.60275977 350.620558 -145.7109375 349.7890625 C-146.67658127 349.42060211 -147.64222504 349.05214172 -148.63713074 348.67251587 C-155.73731942 345.84422331 -161.32132245 342.65427129 -165.25 335.9375 C-167.4055223 328.45656966 -166.43361411 322.21590386 -163.59375 315.09765625 C-163.30387711 314.33625336 -163.01400421 313.57485046 -162.71534729 312.79037476 C-162.08812501 311.14894555 -161.45404397 309.51012368 -160.81375122 307.87374878 C-159.79479247 305.2672033 -158.79648804 302.65351113 -157.80249023 300.03735352 C-154.56717673 291.54839866 -151.25864047 283.08999157 -147.88894653 274.65351868 C-146.39651441 270.90767176 -144.922397 267.15473778 -143.44970703 263.40109253 C-142.40002576 260.75068904 -141.32181516 258.1131686 -140.2421875 255.47485352 C-133.12874232 237.6893529 -134.86358225 225.13552795 -141.875 207.75 C-142.55077577 206.02015536 -143.22407074 204.28933976 -143.89501953 202.55761719 C-145.29520486 198.95441412 -146.70900469 195.35702374 -148.13427734 191.76367188 C-151.38303537 183.56261214 -154.53225111 175.32325392 -157.69210815 167.08764648 C-158.67350855 164.53637254 -159.66107387 161.98757166 -160.65063477 159.43945312 C-160.9568425 158.64879456 -161.26305023 157.85813599 -161.57853699 157.04351807 C-162.14898377 155.57092511 -162.72114259 154.0989937 -163.29536438 152.62786865 C-165.7788847 146.20238239 -167.86427978 139.90533935 -165.59375 133.09375 C-161.96298577 125.24661442 -156.05864534 122.43093093 -148.375 119.25 C-147.4667749 118.86755127 -146.5585498 118.48510254 -145.62280273 118.09106445 C-137.73936809 114.79356858 -129.80876586 111.61154503 -121.875 108.4375 C-121.24987518 108.1870694 -120.62475037 107.93663879 -119.98068237 107.67861938 C-113.36412121 105.02972865 -106.7402605 102.40419904 -100.08305359 99.8589325 C-97.3533235 98.81328955 -94.62849385 97.7552099 -91.90402222 96.69595337 C-90.6124158 96.19780327 -89.3184508 95.70571777 -88.02200317 95.2203064 C-76.29762959 90.82834626 -69.62462448 86.80727952 -64.30078125 75.40625 C-63.28086282 73.13023833 -62.28509461 70.84571538 -61.30279541 68.55322266 C-60.34487764 66.32530371 -59.35931137 64.11234584 -58.36083984 61.90234375 C-56.723967 58.27770563 -55.10747426 54.64451835 -53.49899292 51.00720215 C-52.46995906 48.68212316 -51.43664157 46.35898323 -50.40258789 44.03613281 C-47.24136143 36.92601209 -44.10816217 29.80775464 -41.078125 22.640625 C-40.35266479 20.9400293 -40.35266479 20.9400293 -39.61254883 19.20507812 C-38.73749474 17.14671759 -37.87429347 15.08325509 -37.02612305 13.01367188 C-34.09604758 6.14888918 -30.39353762 -0.10284047 -24 -4.25 C-14.80253801 -5.96115572 -8.30134216 -3.98976716 0 0 Z " fill="#304BFE" transform="translate(254.3125,100.75)"/>
<path d="M0 0 C8.23339417 5.14402365 17.19706338 12.93472186 20.86328125 22.046875 C21.296875 24.828125 21.296875 24.828125 21.30078125 27.546875 C21.32011719 28.4440625 21.33945312 29.34125 21.359375 30.265625 C20.2702847 36.3713911 15.49592782 40.70613562 11.23504639 44.93580627 C10.67782654 45.49685167 10.12060669 46.05789706 9.5465014 46.63594383 C7.68903726 48.50367837 5.82455522 50.36423916 3.95996094 52.22485352 C2.62220743 53.5669568 1.28487168 54.90947659 -0.05207825 56.25238037 C-3.67765472 59.89132978 -7.30959283 63.52386547 -10.94312763 67.15486646 C-13.97913188 70.18979978 -17.01215156 73.22770718 -20.04522491 76.26556915 C-27.20276963 83.43420329 -34.36562274 90.59750282 -41.53173828 97.75756836 C-48.91696341 105.13675414 -56.29296572 112.52506743 -63.66451383 119.91791397 C-70.00064973 126.27168062 -76.34259373 132.61960888 -82.68917727 138.96293968 C-86.47658846 142.74854014 -90.26175373 146.53631852 -94.04129791 150.32977486 C-97.59686749 153.89794192 -101.15965249 157.45874527 -104.72803307 161.01409912 C-106.03346558 162.31717047 -107.33636601 163.62278439 -108.63647652 164.9311657 C-124.76764846 181.15750445 -124.76764846 181.15750445 -135.76171875 182.484375 C-144.07139587 182.28543245 -150.28780462 176.10616962 -156.04833984 170.72021484 C-156.60927023 170.19871542 -157.17020061 169.677216 -157.74812889 169.13991356 C-164.59020292 162.74080486 -171.22997567 156.13747113 -177.86328125 149.5234375 C-178.53163372 148.85791241 -179.19998619 148.19238731 -179.88859177 147.50669479 C-183.40901449 144.0010943 -186.92668745 140.49276377 -190.44189453 136.98193359 C-194.05857378 133.37078977 -197.68448435 129.76906082 -201.31249428 126.1693058 C-204.12108174 123.37933628 -206.92294427 120.58268682 -209.72300339 117.78416061 C-211.0577282 116.45245242 -212.39494183 115.12323365 -213.73472977 113.79661942 C-215.60066362 111.94776721 -217.45687422 110.08965251 -219.31103516 108.22900391 C-219.85957153 107.68968231 -220.40810791 107.15036072 -220.9732666 106.59469604 C-225.19655407 102.32501911 -228.56270489 97.86633432 -228.57421875 91.671875 C-228.17295096 83.35594594 -223.94447727 78.52214453 -218.32421875 72.796875 C-217.82696289 72.28922607 -217.32970703 71.78157715 -216.81738281 71.25854492 C-212.40273223 66.94720685 -207.18077519 62.47212253 -200.69921875 62.484375 C-184.06895725 63.43627549 -166.17821857 88.89218841 -155.38671875 99.734375 C-153.51455743 101.61156204 -151.64216343 103.48851705 -149.76953125 105.36523438 C-145.2225747 109.92310999 -140.67849748 114.48384012 -136.13671875 119.046875 C-132.48720504 117.51062462 -130.17699191 115.32356389 -127.40332031 112.5246582 C-126.71946259 111.83882912 -126.71946259 111.83882912 -126.02178955 111.1391449 C-124.51898608 109.62986383 -123.0232921 108.11372942 -121.52734375 106.59765625 C-120.47656714 105.54060179 -119.42526875 104.48406579 -118.37347412 103.42802429 C-115.60384188 100.64509601 -112.83982127 97.85666629 -110.07739258 95.06658936 C-105.6720605 90.61815818 -101.26014604 86.17628406 -96.84471893 81.73787498 C-95.3136264 80.19667834 -93.78606584 78.65204689 -92.2588501 77.10700989 C-87.62712332 72.43596829 -82.93264773 67.92903082 -77.93545532 63.64994812 C-74.90754908 60.95141228 -72.21327328 57.96430486 -69.484375 54.96875 C-60.68368339 45.45492385 -51.55403293 36.27808493 -42.39038086 27.11523438 C-40.01623026 24.73923138 -37.64723908 22.35831878 -35.28068447 19.97476578 C-32.98589676 17.66617977 -30.68391471 15.36478938 -28.3828125 13.0625 C-27.1217997 11.79070892 -27.1217997 11.79070892 -25.83531189 10.4932251 C-10.56849713 -4.71428391 -10.56849713 -4.71428391 0 0 Z " fill="#FEFEFE" transform="translate(440.13671875,259.953125)"/>
<path d="M0 0 C0.33 0.66 0.66 1.32 1 2 C1.66 2 2.32 2 3 2 C5.125 9.625 5.125 9.625 4 13 C3.32694982 11.39850114 2.66177773 9.79368971 2 8.1875 C1.62875 7.29417969 1.2575 6.40085937 0.875 5.48046875 C0 3 0 3 0 0 Z " fill="#142CFE" transform="translate(104,284)"/>
</svg>
